<?xml version="1.0" encoding="UTF-8"?>
<svg version="1.1" xmlns="http://www.w3.org/2000/svg" width="512" height="512">
<path d="M0 0 C168.96 0 337.92 0 512 0 C512 168.96 512 337.92 512 512 C343.04 512 174.08 512 0 512 C0 343.04 0 174.08 0 0 Z " fill="#FAFAFA" transform="translate(0,0)"/>
<path d="M0 0 C1.82779656 0.59107153 3.66328364 1.15820131 5.49902344 1.72412109 C10.29492795 3.23953402 13.91337776 4.5684076 17.91308594 7.61865234 C20.10156699 8.78179971 22.31254538 9.90308812 24.53808594 10.99365234 C25.1590918 11.30036865 25.78009766 11.60708496 26.41992188 11.9230957 C29.17577159 13.28359198 31.93792385 14.63072343 34.70214844 15.97412109 C39.84187755 18.49503585 44.71561217 21.27827661 49.59277344 24.27490234 C51.61328425 25.44502982 53.56148991 26.38176129 55.72558594 27.24365234 C60.02046892 29.09634696 62.8935578 31.32725004 65.78808594 34.99365234 C67.60782206 37.24156167 69.2604858 38.80756418 71.47558594 40.61865234 C76.80533179 45.13809423 78.21949503 48.85534046 78.79980469 55.72802734 C78.8371875 56.68193359 78.87457031 57.63583984 78.91308594 58.61865234 C78.95602783 59.28082764 78.99896973 59.94300293 79.04321289 60.62524414 C79.28286434 66.68122957 77.96498696 71.34470192 75.72558594 76.93115234 C75.24629639 78.180979 75.24629639 78.180979 74.75732422 79.45605469 C73.0291507 83.92780123 71.19274364 88.3440756 69.28808594 92.74365234 C67.36870392 97.24084516 65.92672713 101.79429907 64.60058594 106.49365234 C59.58621611 124.0568346 52.80428861 140.44704224 44.73730469 156.82177734 C42.39923284 161.5735668 40.22531411 166.36696734 38.16308594 171.24365234 C35.38653824 177.76917142 32.16503108 183.97921584 28.76855469 190.19677734 C27.14778466 193.1858185 25.60288897 196.19393208 24.10058594 199.24365234 C21.78846018 203.90656817 19.60470571 207.92703257 15.91308594 211.61865234 C14.87873038 213.26421801 13.88545081 214.93571315 12.91308594 216.61865234 C12.54183594 217.17294922 12.17058594 217.72724609 11.78808594 218.29833984 C9.13127303 222.30016428 7.14706843 226.28284812 5.35058594 230.74365234 C1.55018271 239.98155557 1.55018271 239.98155557 -1.08691406 242.61865234 C-4.44877023 243.05244024 -6.7778918 243.00989002 -10.08691406 242.61865234 C-11.15683594 242.52197266 -12.22675781 242.42529297 -13.32910156 242.32568359 C-21.6282874 241.39225623 -29.67417506 239.60285178 -37.08691406 235.61865234 C-37.41691406 234.62865234 -37.74691406 233.63865234 -38.08691406 232.61865234 C-39.05628906 232.53615234 -40.02566406 232.45365234 -41.02441406 232.36865234 C-45.75810508 231.71873985 -49.82675814 229.69559911 -54.08691406 227.61865234 C-54.08691406 226.95865234 -54.08691406 226.29865234 -54.08691406 225.61865234 C-54.89128906 225.55419922 -55.69566406 225.48974609 -56.52441406 225.42333984 C-61.25442006 224.35493937 -64.92264148 222.16937548 -69.08691406 219.74365234 C-71.39857845 218.41997653 -73.71158077 217.09937651 -76.03222656 215.79150391 C-77.75761675 214.80662101 -79.45698234 213.77633996 -81.14941406 212.73583984 C-85.04299795 211.25503533 -88.12932276 211.78062783 -92.08691406 212.61865234 C-92.80169922 212.76286621 -93.51648438 212.90708008 -94.25292969 213.05566406 C-96.4564569 213.52315325 -98.64604213 214.03275576 -100.83691406 214.55615234 C-101.578125 214.72566406 -102.31933594 214.89517578 -103.08300781 215.06982422 C-106.68432916 215.9200464 -109.80508612 216.9470352 -113.08691406 218.61865234 C-115.17952712 219.12713776 -117.28614931 219.57928671 -119.39941406 219.99365234 C-124.61782657 221.07651375 -129.80039915 222.22731591 -134.96191406 223.55615234 C-136.13496094 223.85392578 -137.30800781 224.15169922 -138.51660156 224.45849609 C-141.2479546 225.34603641 -143.38434805 226.2323095 -145.88378906 227.55224609 C-150.55744574 229.98036119 -155.39775672 231.35651359 -160.46191406 232.74365234 C-161.34363281 232.99501953 -162.22535156 233.24638672 -163.13378906 233.50537109 C-182.03269189 238.79817233 -182.03269189 238.79817233 -188.08691406 236.61865234 C-189.43798904 234.72894282 -190.30194064 232.86485429 -191.19238281 230.72021484 C-192.09157645 228.39964507 -192.09157645 228.39964507 -194.08691406 225.80615234 C-198.56405732 218.67070528 -200.60685548 210.14934939 -203.22241211 202.18310547 C-204.49928077 198.30846952 -205.87862551 194.490667 -207.33691406 190.68115234 C-208.7192603 186.97494059 -209.28849733 183.75206005 -209.62988281 179.79833984 C-210.23853337 176.89554486 -211.4645473 174.5290019 -212.77441406 171.86865234 C-216.64166015 163.90175356 -218.96503588 155.58394072 -221.3828125 147.08666992 C-224.0145717 137.80623196 -224.0145717 137.80623196 -227.46191406 128.80615234 C-231.38429154 119.57911375 -234.98400907 110.56050112 -237.28222656 100.78662109 C-239.6465099 91.47869008 -242.94754428 82.58091856 -247.02441406 73.89208984 C-249.13286009 69.38063547 -250.1527135 65.20848258 -250.83691406 60.30615234 C-251.79389072 54.04658371 -253.78726176 48.37773712 -256.0546875 42.49438477 C-257.46743984 38.75600457 -258.59270431 35.62935527 -258.08691406 31.61865234 C-256.52441406 28.36865234 -256.52441406 28.36865234 -254.08691406 25.61865234 C-250.89941406 24.99365234 -250.89941406 24.99365234 -247.08691406 24.61865234 C-245.67071627 24.0412794 -244.27520769 23.41161012 -242.89941406 22.74365234 C-238.59090026 20.72628802 -234.36175215 19.61341836 -229.73925781 18.53662109 C-224.19880281 17.14410032 -218.75313784 15.45108408 -213.29272461 13.77539062 C-208.25125063 12.23650348 -203.20502135 10.87833128 -198.08691406 9.61865234 C-196.02171662 9.02377157 -193.95916122 8.41963851 -191.89941406 7.80615234 C-185.72501591 6.03251313 -179.51827554 4.44170195 -173.27441406 2.93115234 C-172.40341064 2.71676514 -171.53240723 2.50237793 -170.63500977 2.28149414 C-165.78675246 1.12578614 -161.0531726 0.3297088 -156.09399414 -0.15063477 C-153.42669061 -0.45724002 -150.9160133 -1.08250719 -148.33691406 -1.81884766 C-147.45519531 -2.06505859 -146.57347656 -2.31126953 -145.66503906 -2.56494141 C-143.05568348 -3.35479136 -143.05568348 -3.35479136 -140.46582031 -4.43994141 C-134.48938995 -6.80499841 -126.67707899 -7.92327747 -120.64941406 -5.33447266 C-112.63213508 -0.96608347 -112.63213508 -0.96608347 -111.37597656 2.68505859 C-111.04726563 3.920625 -111.04726563 3.920625 -110.71191406 5.18115234 C-109.72809548 8.64439251 -108.6101492 11.8570687 -107.08691406 15.11865234 C-105.2310394 19.10560741 -104.0037249 23.12208725 -102.80175781 27.34521484 C-101.87922665 30.27916641 -100.48392014 32.88284878 -99.08691406 35.61865234 C-98.31342772 37.79540352 -97.6104502 39.9898279 -96.90332031 42.18896484 C-95.08329389 47.6055028 -92.90313752 52.89202581 -90.46191406 58.05615234 C-88.62781659 62.80813216 -87.85847852 67.59894477 -87.08691406 72.61865234 C-83.31407023 70.73223043 -82.33235814 65.64737633 -80.71972656 61.91552734 C-79.13817164 58.72214851 -77.3560653 56.34437324 -75.08691406 53.61865234 C-73.84963223 51.57120017 -73.84963223 51.57120017 -72.89941406 49.55615234 C-72.41408203 48.5796875 -72.41408203 48.5796875 -71.91894531 47.58349609 C-71.0844666 45.61287266 -70.54705161 43.70553879 -70.08691406 41.61865234 C-69.42691406 41.61865234 -68.76691406 41.61865234 -68.08691406 41.61865234 C-68.16941406 40.93802734 -68.25191406 40.25740234 -68.33691406 39.55615234 C-68.05778857 36.27642785 -66.93283242 34.27899433 -65.23144531 31.50146484 C-62.46123148 26.94432127 -60.24616525 22.20216072 -58.46191406 17.18115234 C-57.08691406 13.61865234 -57.08691406 13.61865234 -55.08691406 12.61865234 C-54.39528418 10.76903871 -54.39528418 10.76903871 -53.83691406 8.55615234 C-51.89283671 2.3999074 -48.63784054 -2.28827978 -43.64941406 -6.38134766 C-31.38316051 -11.16817831 -11.95616519 -3.87266836 0 0 Z " fill="#F8F8F8" transform="translate(334.0869140625,148.38134765625)"/>
<path d="M0 0 C1.73156924 0.27859962 3.46336303 0.55580523 5.1953125 0.83203125 C19.78707347 3.21568788 32.09779107 6.13470889 45.10546875 13.40234375 C48.32512717 15.17945616 51.59540839 16.61294416 55 18 C61.61669633 20.87001812 67.99297169 24.00556441 74.2890625 27.5234375 C76.96815199 28.98265339 79.68551899 30.30953694 82.4375 31.625 C85.87705161 33.3256368 88.63393236 34.88109265 91 38 C91 38.66 91 39.32 91 40 C91.556875 40.226875 92.11375 40.45375 92.6875 40.6875 C96.71969057 42.97604059 99.45058599 46.17587898 102 50 C104.78130763 62.78331777 102.82357183 74.32512104 97.1875 85.9375 C93.35748778 93.90164451 91.0932545 102.25766639 88.65966797 110.73095703 C84.95011298 123.49061805 80.03643242 135.28758057 73.62109375 146.91796875 C71.82738739 150.32817192 70.44376748 153.77284443 69.07421875 157.3671875 C65.18357983 166.90278979 59.9978671 175.99733198 55.10864258 185.05102539 C53.4069212 188.225266 51.79477316 191.38397501 50.40234375 194.70703125 C47.54582216 201.41468502 43.5979888 207.2703562 39.125 213 C33.68034124 220.28407051 30.4545901 228.64834469 27 237 C13.1956464 237.59255572 2.70296682 234.10946042 -10 229 C-10 228.34 -10 227.68 -10 227 C-10.68707031 226.90074219 -11.37414062 226.80148437 -12.08203125 226.69921875 C-20.74092745 224.6243293 -29.26252059 219.00302449 -36.80078125 214.35546875 C-39.82434445 212.49192269 -42.90825619 210.74750737 -46 209 C-46 208.34 -46 207.68 -46 207 C-41.90974554 205.36389821 -38.0093794 203.92843613 -33.6875 203.0625 C-28.29822825 201.94326206 -23.01019487 200.2903748 -18 198 C-16.2138065 194.427613 -16.69556372 190.97696369 -17.859375 187.2421875 C-18.23578125 186.17226563 -18.6121875 185.10234375 -19 184 C-23.90972222 169.70833333 -23.90972222 169.70833333 -25.5625 162.625 C-26.59172168 158.29536915 -27.99365411 154.53732103 -29.90234375 150.53125 C-31.29594647 147.3175327 -32.36461316 144.01791086 -33.4375 140.6875 C-34.95403758 135.99072999 -36.60479818 131.40894133 -38.5625 126.875 C-40.71950256 121.83527438 -42.40575662 116.76315104 -43.95703125 111.5078125 C-44.71801914 108.94838505 -45.50389891 106.40741917 -46.32421875 103.8671875 C-46.55044922 103.16239258 -46.77667969 102.45759766 -47.00976562 101.73144531 C-47.44858693 100.36755836 -47.89106186 99.00483931 -48.33789062 97.64355469 C-49.68743171 93.41168704 -50.48369561 89.39142418 -51 85 C-51.66 85 -52.32 85 -53 85 C-52.19730497 75.76900712 -48.16327055 68.1418602 -43.6953125 60.16015625 C-40.55870186 54.31334057 -37.83498633 48.266068 -35.04541016 42.24804688 C-33.31760847 38.53258729 -31.56285332 34.82987304 -29.8125 31.125 C-27.57938681 26.39428357 -25.38381584 21.65161527 -23.25 16.875 C-20.34452701 10.48295942 -17.58386875 4.5202747 -12 0 C-7.62828124 -1.3022141 -4.42214 -0.78385759 0 0 Z " fill="#F8F8F8" transform="translate(304,148)"/>
<path d="M0 0 C1.82779656 0.59107153 3.66328364 1.15820131 5.49902344 1.72412109 C10.29492795 3.23953402 13.91337776 4.5684076 17.91308594 7.61865234 C20.10156699 8.78179971 22.31254538 9.90308812 24.53808594 10.99365234 C25.1590918 11.30036865 25.78009766 11.60708496 26.41992188 11.9230957 C29.17577159 13.28359198 31.93792385 14.63072343 34.70214844 15.97412109 C39.84187755 18.49503585 44.71561217 21.27827661 49.59277344 24.27490234 C51.61328425 25.44502982 53.56148991 26.38176129 55.72558594 27.24365234 C60.02046892 29.09634696 62.8935578 31.32725004 65.78808594 34.99365234 C67.60782206 37.24156167 69.2604858 38.80756418 71.47558594 40.61865234 C76.80533179 45.13809423 78.21949503 48.85534046 78.79980469 55.72802734 C78.8371875 56.68193359 78.87457031 57.63583984 78.91308594 58.61865234 C78.95602783 59.28082764 78.99896973 59.94300293 79.04321289 60.62524414 C79.28286434 66.68122957 77.96498696 71.34470192 75.72558594 76.93115234 C75.24629639 78.180979 75.24629639 78.180979 74.75732422 79.45605469 C73.0291507 83.92780123 71.19274364 88.3440756 69.28808594 92.74365234 C67.36870392 97.24084516 65.92672713 101.79429907 64.60058594 106.49365234 C59.58621611 124.0568346 52.80428861 140.44704224 44.73730469 156.82177734 C42.39923284 161.5735668 40.22531411 166.36696734 38.16308594 171.24365234 C35.38653824 177.76917142 32.16503108 183.97921584 28.76855469 190.19677734 C27.14778466 193.1858185 25.60288897 196.19393208 24.10058594 199.24365234 C21.78846018 203.90656817 19.60470571 207.92703257 15.91308594 211.61865234 C14.87873038 213.26421801 13.88545081 214.93571315 12.91308594 216.61865234 C12.54183594 217.17294922 12.17058594 217.72724609 11.78808594 218.29833984 C9.13127303 222.30016428 7.14706843 226.28284812 5.35058594 230.74365234 C1.55018271 239.98155557 1.55018271 239.98155557 -1.08691406 242.61865234 C-4.44877023 243.05244024 -6.7778918 243.00989002 -10.08691406 242.61865234 C-11.15683594 242.52197266 -12.22675781 242.42529297 -13.32910156 242.32568359 C-21.6282874 241.39225623 -29.67417506 239.60285178 -37.08691406 235.61865234 C-37.41691406 234.62865234 -37.74691406 233.63865234 -38.08691406 232.61865234 C-39.05628906 232.53615234 -40.02566406 232.45365234 -41.02441406 232.36865234 C-45.75810508 231.71873985 -49.82675814 229.69559911 -54.08691406 227.61865234 C-54.08691406 226.95865234 -54.08691406 226.29865234 -54.08691406 225.61865234 C-54.89128906 225.55419922 -55.69566406 225.48974609 -56.52441406 225.42333984 C-61.25442006 224.35493937 -64.92264148 222.16937548 -69.08691406 219.74365234 C-71.39857845 218.41997653 -73.71158077 217.09937651 -76.03222656 215.79150391 C-77.75761675 214.80662101 -79.45698234 213.77633996 -81.14941406 212.73583984 C-85.04299795 211.25503533 -88.12932276 211.78062783 -92.08691406 212.61865234 C-92.80169922 212.76286621 -93.51648438 212.90708008 -94.25292969 213.05566406 C-96.4564569 213.52315325 -98.64604213 214.03275576 -100.83691406 214.55615234 C-101.578125 214.72566406 -102.31933594 214.89517578 -103.08300781 215.06982422 C-106.68432916 215.9200464 -109.80508612 216.9470352 -113.08691406 218.61865234 C-115.17952712 219.12713776 -117.28614931 219.57928671 -119.39941406 219.99365234 C-124.61782657 221.07651375 -129.80039915 222.22731591 -134.96191406 223.55615234 C-136.13496094 223.85392578 -137.30800781 224.15169922 -138.51660156 224.45849609 C-141.2479546 225.34603641 -143.38434805 226.2323095 -145.88378906 227.55224609 C-150.55744574 229.98036119 -155.39775672 231.35651359 -160.46191406 232.74365234 C-161.34363281 232.99501953 -162.22535156 233.24638672 -163.13378906 233.50537109 C-182.03269189 238.79817233 -182.03269189 238.79817233 -188.08691406 236.61865234 C-189.43798904 234.72894282 -190.30194064 232.86485429 -191.19238281 230.72021484 C-192.09157645 228.39964507 -192.09157645 228.39964507 -194.08691406 225.80615234 C-198.56405732 218.67070528 -200.60685548 210.14934939 -203.22241211 202.18310547 C-204.49928077 198.30846952 -205.87862551 194.490667 -207.33691406 190.68115234 C-208.7192603 186.97494059 -209.28849733 183.75206005 -209.62988281 179.79833984 C-210.23853337 176.89554486 -211.4645473 174.5290019 -212.77441406 171.86865234 C-216.64166015 163.90175356 -218.96503588 155.58394072 -221.3828125 147.08666992 C-224.0145717 137.80623196 -224.0145717 137.80623196 -227.46191406 128.80615234 C-231.38429154 119.57911375 -234.98400907 110.56050112 -237.28222656 100.78662109 C-239.6465099 91.47869008 -242.94754428 82.58091856 -247.02441406 73.89208984 C-249.13286009 69.38063547 -250.1527135 65.20848258 -250.83691406 60.30615234 C-251.79389072 54.04658371 -253.78726176 48.37773712 -256.0546875 42.49438477 C-257.46743984 38.75600457 -258.59270431 35.62935527 -258.08691406 31.61865234 C-256.52441406 28.36865234 -256.52441406 28.36865234 -254.08691406 25.61865234 C-250.89941406 24.99365234 -250.89941406 24.99365234 -247.08691406 24.61865234 C-245.67071627 24.0412794 -244.27520769 23.41161012 -242.89941406 22.74365234 C-238.59090026 20.72628802 -234.36175215 19.61341836 -229.73925781 18.53662109 C-224.19880281 17.14410032 -218.75313784 15.45108408 -213.29272461 13.77539062 C-208.25125063 12.23650348 -203.20502135 10.87833128 -198.08691406 9.61865234 C-196.02171662 9.02377157 -193.95916122 8.41963851 -191.89941406 7.80615234 C-185.72501591 6.03251313 -179.51827554 4.44170195 -173.27441406 2.93115234 C-172.40341064 2.71676514 -171.53240723 2.50237793 -170.63500977 2.28149414 C-165.78675246 1.12578614 -161.0531726 0.3297088 -156.09399414 -0.15063477 C-153.42669061 -0.45724002 -150.9160133 -1.08250719 -148.33691406 -1.81884766 C-147.45519531 -2.06505859 -146.57347656 -2.31126953 -145.66503906 -2.56494141 C-143.05568348 -3.35479136 -143.05568348 -3.35479136 -140.46582031 -4.43994141 C-134.48938995 -6.80499841 -126.67707899 -7.92327747 -120.64941406 -5.33447266 C-112.63213508 -0.96608347 -112.63213508 -0.96608347 -111.37597656 2.68505859 C-111.04726563 3.920625 -111.04726563 3.920625 -110.71191406 5.18115234 C-109.72809548 8.64439251 -108.6101492 11.8570687 -107.08691406 15.11865234 C-105.2310394 19.10560741 -104.0037249 23.12208725 -102.80175781 27.34521484 C-101.87922665 30.27916641 -100.48392014 32.88284878 -99.08691406 35.61865234 C-98.31342772 37.79540352 -97.6104502 39.9898279 -96.90332031 42.18896484 C-95.08329389 47.6055028 -92.90313752 52.89202581 -90.46191406 58.05615234 C-88.62781659 62.80813216 -87.85847852 67.59894477 -87.08691406 72.61865234 C-83.31407023 70.73223043 -82.33235814 65.64737633 -80.71972656 61.91552734 C-79.13817164 58.72214851 -77.3560653 56.34437324 -75.08691406 53.61865234 C-73.84963223 51.57120017 -73.84963223 51.57120017 -72.89941406 49.55615234 C-72.41408203 48.5796875 -72.41408203 48.5796875 -71.91894531 47.58349609 C-71.0844666 45.61287266 -70.54705161 43.70553879 -70.08691406 41.61865234 C-69.42691406 41.61865234 -68.76691406 41.61865234 -68.08691406 41.61865234 C-68.16941406 40.93802734 -68.25191406 40.25740234 -68.33691406 39.55615234 C-68.05778857 36.27642785 -66.93283242 34.27899433 -65.23144531 31.50146484 C-62.46123148 26.94432127 -60.24616525 22.20216072 -58.46191406 17.18115234 C-57.08691406 13.61865234 -57.08691406 13.61865234 -55.08691406 12.61865234 C-54.39528418 10.76903871 -54.39528418 10.76903871 -53.83691406 8.55615234 C-51.89283671 2.3999074 -48.63784054 -2.28827978 -43.64941406 -6.38134766 C-31.38316051 -11.16817831 -11.95616519 -3.87266836 0 0 Z M-148.08691406 2.61865234 C-148.08691406 3.27865234 -148.08691406 3.93865234 -148.08691406 4.61865234 C-149.2303125 4.75142578 -150.37371094 4.88419922 -151.55175781 5.02099609 C-153.04267026 5.19915544 -154.53355424 5.37755316 -156.02441406 5.55615234 C-156.77916016 5.64316406 -157.53390625 5.73017578 -158.31152344 5.81982422 C-162.00878864 5.96189333 -162.00878864 5.96189333 -165.08691406 7.61865234 C-166.7681978 7.92572225 -168.45777027 8.18753742 -170.14941406 8.43115234 C-180.38247583 10.06746532 -190.47315365 12.57307765 -200.24707031 16.02490234 C-202.81950709 16.85507302 -205.41094479 17.27557936 -208.08691406 17.61865234 C-208.08691406 18.27865234 -208.08691406 18.93865234 -208.08691406 19.61865234 C-208.67859375 19.66763672 -209.27027344 19.71662109 -209.87988281 19.76708984 C-210.67007813 19.84185547 -211.46027344 19.91662109 -212.27441406 19.99365234 C-213.05171875 20.06326172 -213.82902344 20.13287109 -214.62988281 20.20458984 C-217.3368439 20.66077088 -219.54997629 21.57993657 -222.08691406 22.61865234 C-224.03804002 23.12637041 -225.99705498 23.60448993 -227.96191406 24.05615234 C-231.45464538 24.90040764 -234.74638276 25.76673714 -238.02441406 27.24365234 C-240.77073713 28.47669535 -243.12623287 29.17006428 -246.08691406 29.61865234 C-246.08691406 30.27865234 -246.08691406 30.93865234 -246.08691406 31.61865234 C-246.87066406 31.57740234 -247.65441406 31.53615234 -248.46191406 31.49365234 C-251.24807525 31.331365 -251.24807525 31.331365 -253.08691406 33.61865234 C-253.18538324 35.73615602 -253.18538324 35.73615602 -252.83691406 38.05615234 C-252.74925781 38.83861328 -252.66160156 39.62107422 -252.57128906 40.42724609 C-252.1647052 42.89418669 -252.1647052 42.89418669 -250.08691406 45.61865234 C-249.54498088 47.74949955 -249.07506011 49.89906476 -248.64941406 52.05615234 C-246.58908187 62.02980022 -244.40055169 71.33300492 -240.34082031 80.70068359 C-236.96356059 88.55991415 -234.43749518 96.66711732 -231.94897461 104.83837891 C-230.57120143 109.28432035 -228.93148701 113.45004563 -226.93457031 117.64599609 C-225.54532107 120.87904156 -224.8356842 124.18678922 -224.08691406 127.61865234 C-223.42691406 127.61865234 -222.76691406 127.61865234 -222.08691406 127.61865234 C-221.97089844 128.44880859 -221.85488281 129.27896484 -221.73535156 130.13427734 C-221.0180198 133.98885525 -219.91871945 137.6471868 -218.71191406 141.36865234 C-218.25683157 142.79031771 -217.80240299 144.21219257 -217.34863281 145.63427734 C-217.12997559 146.318125 -216.91131836 147.00197266 -216.68603516 147.70654297 C-215.9161484 150.16365506 -215.22107624 152.63992064 -214.52441406 155.11865234 C-213.64804987 158.08745914 -212.60692749 160.70255163 -211.14941406 163.43115234 C-207.35325398 170.66262078 -205.51570591 178.72595718 -203.63769531 186.62988281 C-201.80285944 194.33802829 -199.32730056 201.36635876 -196.08691406 208.61865234 C-195.34867108 210.4274745 -194.61899053 212.23982363 -193.89941406 214.05615234 C-193.59648437 214.81798828 -193.29355469 215.57982422 -192.98144531 216.36474609 C-192.68625 217.10853516 -192.39105469 217.85232422 -192.08691406 218.61865234 C-191.42065048 220.28548019 -190.75408744 221.95218845 -190.08691406 223.61865234 C-189.42691406 223.61865234 -188.76691406 223.61865234 -188.08691406 223.61865234 C-187.81878906 224.21677734 -187.55066406 224.81490234 -187.27441406 225.43115234 C-185.66326651 228.45933801 -185.66326651 228.45933801 -183.08691406 230.61865234 C-170.76179594 232.27780286 -157.40136531 225.7141963 -146.1003418 221.48535156 C-139.9891178 219.22596333 -134.05112581 217.42315447 -127.64550781 216.18896484 C-125.04051614 215.68234467 -125.04051614 215.68234467 -122.51660156 214.57568359 C-120.12930929 213.63535143 -118.31655586 213.33451739 -115.77441406 213.18115234 C-112.02990642 212.82511719 -108.92300125 211.92943801 -105.42285156 210.49755859 C-102.49900934 209.39745074 -99.53452855 208.57904367 -96.52441406 207.74365234 C-91.61915834 206.37038881 -86.785303 204.88119026 -81.96191406 203.24365234 C-74.89589183 200.84611898 -67.770254 198.69027923 -60.61181641 196.5859375 C-59.79277832 196.34407715 -58.97374023 196.1022168 -58.12988281 195.85302734 C-57.39793701 195.6387207 -56.66599121 195.42441406 -55.91186523 195.20361328 C-54.0177032 194.64773763 -54.0177032 194.64773763 -52.08691406 193.61865234 C-52.73208235 188.28900127 -53.87024652 183.27892068 -55.33691406 178.11865234 C-55.55653809 177.3383667 -55.77616211 176.55808105 -56.00244141 175.75415039 C-58.43917182 167.21171931 -60.91885179 158.55701641 -64.49316406 150.41552734 C-66.6706875 145.42209836 -68.27030004 140.22932166 -69.96191406 135.05615234 C-73.87018545 123.21905544 -77.86457484 111.41316057 -81.89941406 99.61865234 C-82.31667755 98.39660599 -82.31667755 98.39660599 -82.74237061 97.14987183 C-85.5085014 89.0499357 -88.29061621 80.9608434 -91.24389648 72.92675781 C-92.02037114 70.80084083 -92.77168782 68.66864382 -93.50878906 66.52880859 C-96.40201792 58.13251836 -99.54529857 49.87823587 -102.90527344 41.65771484 C-106.20059918 33.51632185 -109.1152541 25.2460667 -111.94165039 16.93115234 C-114.67262684 9.10372775 -117.44052134 3.58889472 -125.08691406 -0.38134766 C-132.66165001 -1.16494103 -140.88229079 0.21711125 -148.08691406 2.61865234 Z M-43.08691406 0.61865234 C-48.96340808 5.32488095 -51.27758538 11.13280056 -53.71582031 18.07177734 C-55.19207467 21.89069176 -56.9811358 25.35788268 -58.96191406 28.93115234 C-62.19869496 34.79206223 -64.96233304 40.74411024 -67.57592773 46.90551758 C-69.67877919 51.81538912 -72.11636402 56.4424254 -74.74316406 61.09521484 C-76.50924096 64.41174298 -77.87656061 67.8199173 -79.20800781 71.32958984 C-80.01284574 73.42574552 -80.90324005 75.45259752 -81.83691406 77.49365234 C-83.33450785 80.67668214 -83.33450785 80.67668214 -83.08691406 84.61865234 C-82.42691406 84.61865234 -81.76691406 84.61865234 -81.08691406 84.61865234 C-80.96960938 85.61638672 -80.85230469 86.61412109 -80.73144531 87.64208984 C-80.15796046 91.64141852 -79.03199723 95.41236668 -77.77441406 99.24365234 C-77.31949955 100.65755811 -76.865079 102.07162289 -76.41113281 103.48583984 C-76.18603027 104.18290039 -75.96092773 104.87996094 -75.72900391 105.59814453 C-74.80411083 108.50856851 -73.95144897 111.4398198 -73.08691406 114.36865234 C-71.8524244 118.40164645 -70.45191187 122.25002548 -68.77441406 126.11865234 C-65.94843409 132.65427786 -63.7708232 139.37568575 -61.58569336 146.14599609 C-60.34151502 149.97533627 -59.0897319 153.74425864 -57.46582031 157.43115234 C-56.25323818 160.23417505 -55.3868005 162.85202656 -54.64941406 165.80615234 C-52.78863265 172.91629604 -50.41636193 179.84096069 -47.97753906 186.77099609 C-46.79900987 190.53918811 -46.28169143 194.00820707 -48.08691406 197.61865234 C-55.0388395 200.93516723 -62.12669637 203.11883308 -69.74707031 204.16162109 C-72.15610883 204.63216785 -73.95539204 205.42244022 -76.08691406 206.61865234 C-76.08691406 207.27865234 -76.08691406 207.93865234 -76.08691406 208.61865234 C-73.6854313 210.27573322 -73.6854313 210.27573322 -70.64941406 211.93115234 C-68.998125 212.86701172 -68.998125 212.86701172 -67.31347656 213.82177734 C-66.24871094 214.41474609 -65.18394531 215.00771484 -64.08691406 215.61865234 C-63.29027344 216.06724609 -62.49363281 216.51583984 -61.67285156 216.97802734 C-60.24696678 217.77652282 -58.81728037 218.56826933 -57.38378906 219.35302734 C-55.65579367 220.30518807 -53.93882053 221.27739453 -52.22753906 222.25927734 C-51.25300781 222.81099609 -50.27847656 223.36271484 -49.27441406 223.93115234 C-48.38109375 224.44291016 -47.48777344 224.95466797 -46.56738281 225.48193359 C-43.93561014 226.89638929 -43.93561014 226.89638929 -40.08691406 226.61865234 C-40.08691406 227.27865234 -40.08691406 227.93865234 -40.08691406 228.61865234 C-27.38394724 233.72811277 -16.89126766 237.21120806 -3.08691406 236.61865234 C-2.60222656 235.44689453 -2.11753906 234.27513672 -1.61816406 233.06787109 C1.86866955 224.82442702 5.34964003 217.36764424 10.89355469 210.27099609 C13.1952541 207.24806785 15.23435486 204.09978496 17.22558594 200.86865234 C17.86109375 199.84255859 18.49660156 198.81646484 19.15136719 197.75927734 C21.00407303 194.45644919 22.44818578 191.10923475 23.91308594 187.61865234 C25.10233102 185.11916439 26.35012536 182.650479 27.60058594 180.18115234 C27.94581299 179.49375977 28.29104004 178.80636719 28.64672852 178.09814453 C30.43369923 174.54118721 32.23220389 170.99025885 34.03808594 167.44287109 C37.55917559 160.50079796 40.85664284 153.57143087 43.76855469 146.34521484 C44.87827329 143.70158486 46.10537606 141.16929389 47.41308594 138.61865234 C53.16358407 127.33535182 56.88869149 115.60857765 60.43066406 103.48388672 C62.62672839 96.17274157 65.2260577 89.3502851 68.57788086 82.48754883 C73.20537569 72.54465402 74.33782341 61.90324944 72.22558594 51.11865234 C70.74569942 47.17228829 69.0934569 45.33360317 65.91308594 42.61865234 C65.35621094 42.02052734 64.79933594 41.42240234 64.22558594 40.80615234 C62.96090322 39.39501457 62.96090322 39.39501457 60.91308594 39.61865234 C60.64496094 39.02052734 60.37683594 38.42240234 60.10058594 37.80615234 C57.657916 33.30649719 54.54678833 31.82782779 49.91308594 29.80615234 C44.63920455 27.4413931 39.58117216 24.86367339 34.53027344 22.06005859 C28.00248583 18.46490393 21.42533881 15.29353969 14.43261719 12.70849609 C11.91308594 11.61865234 11.91308594 11.61865234 8.60058594 9.65771484 C4.90523618 7.50809982 1.20163398 6.21749393 -2.89941406 5.05615234 C-3.62427002 4.84635742 -4.34912598 4.6365625 -5.09594727 4.42041016 C-13.31149178 2.13670167 -21.66292442 0.85920007 -30.08691406 -0.38134766 C-31.17746094 -0.58115234 -32.26800781 -0.78095703 -33.39160156 -0.98681641 C-37.27977151 -1.55595433 -39.47815443 -0.96413697 -43.08691406 0.61865234 Z " fill="#0D0D0D" transform="translate(334.0869140625,148.38134765625)"/>
<path d="M0 0 C2.26953125 0.0625 2.26953125 0.0625 5 1 C6.51327839 3.37757567 7.60341747 5.43725965 8.6875 8 C9.14346558 9.01960815 9.14346558 9.01960815 9.60864258 10.05981445 C11.20039372 13.72681496 12.44750447 17.24305953 13.1875 21.1875 C14.04941844 25.23188653 14.90547897 26.42123247 18 29 C18 29.66 18 30.32 18 31 C18.99 31.33 19.98 31.66 21 32 C21.11730469 32.70382813 21.23460937 33.40765625 21.35546875 34.1328125 C22.84851914 40.77462452 25.86736032 47.26826255 29.3125 53.125 C31 56 31 56 31 58 C31.721875 58.2475 32.44375 58.495 33.1875 58.75 C36 60 36 60 38.5 62.1875 C40.84822437 64.27494903 40.84822437 64.27494903 43.6875 63.9375 C46.32620968 63.1202663 46.32620968 63.1202663 48 60 C48.66 60 49.32 60 50 60 C50.52048051 63.64336355 50.12570346 64.82477699 47.9375 67.875 C45 70 45 70 41.4375 70 C38.22391644 69.06513933 36.34846956 68.34846956 34 66 C34 65.34 34 64.68 34 64 C33.27039063 63.81824219 32.54078125 63.63648438 31.7890625 63.44921875 C27.95056317 61.45470439 26.42176657 58.46491966 24.375 54.8125 C23.9934375 54.16474609 23.611875 53.51699219 23.21875 52.84960938 C19.94813911 47.2049861 16.98776385 41.51924138 16 35 C15.67 36.32 15.34 37.64 15 39 C14.01 39 13.02 39 12 39 C13.41242595 46.10248479 15.50718385 52.77670003 18.3125 59.4375 C18.58392822 60.11103516 18.85535645 60.78457031 19.13500977 61.47851562 C21.26616763 66.36158064 23.8130183 68.74608334 28 72 C28 72.66 28 73.32 28 74 C31.24208567 73.64950425 32.61527704 73.43778819 34.8125 70.9375 C35.204375 70.298125 35.59625 69.65875 36 69 C36.25 71.75 36.25 71.75 36 75 C34 77.375 34 77.375 32 79 C26.19977132 77.83995426 22.52085682 75.90739381 19 71 C16.77499976 66.38692589 15.00579851 61.61883182 13.25 56.8125 C12.30278853 54.27507718 11.34673729 51.74112831 10.390625 49.20703125 C9.97844727 48.0878833 9.56626953 46.96873535 9.14160156 45.81567383 C8.0551013 42.86444328 8.0551013 42.86444328 6 40 C2.535 40.495 2.535 40.495 -1 41 C0.09314083 46.67147182 1.40898457 51.81796914 4 57 C4.99 57.495 4.99 57.495 6 58 C6.64199482 59.49701518 7.21451883 61.02416593 7.75 62.5625 C9.47707921 67.11156146 11.64541663 70.56747991 14.73046875 74.30859375 C16 76 16 76 17 79 C19.97 79.495 19.97 79.495 23 80 C23.33 80.99 23.66 81.98 24 83 C20.97643502 83.6525215 18.09916113 84.11279443 15 84 C12.6875 82 12.6875 82 11 79 C10.319375 77.88625 9.63875 76.7725 8.9375 75.625 C7.59733767 73.21796335 6.44122811 70.78965891 5.375 68.25 C4.09210229 64.93593774 4.09210229 64.93593774 2 62 C-1.33850055 61.1928418 -1.33850055 61.1928418 -5.125 60.8125 C-7.04699219 60.57466797 -7.04699219 60.57466797 -9.0078125 60.33203125 C-9.99523437 60.22246094 -10.98265625 60.11289063 -12 60 C-12.495 57.525 -12.495 57.525 -13 55 C-8.71 55.66 -4.42 56.32 0 57 C-0.639375 55.63875 -1.27875 54.2775 -1.9375 52.875 C-3.55907526 49.24794296 -4.59147681 45.98310112 -5 42 C-5.54527344 42.18175781 -6.09054688 42.36351562 -6.65234375 42.55078125 C-8.24062519 43.0802084 -9.82918761 43.60879305 -11.41796875 44.13671875 C-13.0893556 44.69553342 -14.75878272 45.26025881 -16.42578125 45.83203125 C-20.2628445 47.14114695 -23.98344987 48.35216933 -28 49 C-27.67 50.32 -27.34 51.64 -27 53 C-32.75 56 -32.75 56 -35 56 C-35.66 59.3 -36.32 62.6 -37 66 C-35.02 65.505 -35.02 65.505 -33 65 C-32.67 64.01 -32.34 63.02 -32 62 C-27.66666667 59 -27.66666667 59 -25 59 C-24.67 58.01 -24.34 57.02 -24 56 C-22.515 56.495 -22.515 56.495 -21 57 C-21 57.99 -21 58.98 -21 60 C-21.99 60 -22.98 60 -24 60 C-24 60.66 -24 61.32 -24 62 C-25.57421875 63.76171875 -25.57421875 63.76171875 -27.6875 65.6875 C-28.37199219 66.33074219 -29.05648437 66.97398437 -29.76171875 67.63671875 C-32 69 -32 69 -34.76953125 68.70703125 C-35.50558594 68.47371094 -36.24164063 68.24039063 -37 68 C-37 68.99 -37 69.98 -37 71 C-36.34 71 -35.68 71 -35 71 C-34.401875 71.61875 -33.80375 72.2375 -33.1875 72.875 C-30.87494294 75.121484 -29.02800981 75.9906634 -26 77 C-26.103125 76.278125 -26.20625 75.55625 -26.3125 74.8125 C-25.8714033 70.8426297 -23.99516318 69.49596932 -21 67 C-20.34 67 -19.68 67 -19 67 C-19 66.01 -19 65.02 -19 64 C-17.68 64.33 -16.36 64.66 -15 65 C-15.33 66.32 -15.66 67.64 -16 69 C-16.66 69 -17.32 69 -18 69 C-18 69.66 -18 70.32 -18 71 C-18.99 71.495 -18.99 71.495 -20 72 C-20 73.65 -20 75.3 -20 77 C-19.13375 76.7834375 -19.13375 76.7834375 -18.25 76.5625 C-16.16666667 76.04166667 -14.08333333 75.52083333 -12 75 C-11.67 75.99 -11.34 76.98 -11 78 C-17.23440454 82.03402647 -17.23440454 82.03402647 -20.8125 81.875 C-23 81 -23 81 -25 79 C-25.33820166 80.5823006 -25.67035939 82.16589375 -26 83.75 C-26.185625 84.63171875 -26.37125 85.5134375 -26.5625 86.421875 C-27.11153675 89.22143965 -27.11153675 89.22143965 -27 93 C-26.34 93.33 -25.68 93.66 -25 94 C-25 94.66 -25 95.32 -25 96 C-23.02 96 -21.04 96 -19 96 C-19 96.66 -19 97.32 -19 98 C-18.443125 98.061875 -17.88625 98.12375 -17.3125 98.1875 C-14.02727058 99.34176979 -12.392197 101.49388886 -10 104 C-9.030625 104.78375 -8.06125 105.5675 -7.0625 106.375 C-4.78863395 108.22541651 -2.92961445 110.17809289 -1.0625 112.4375 C1.94647682 116.07700511 5.35367419 119.0201803 9 122 C9.18175781 120.80503906 9.36351562 119.61007812 9.55078125 118.37890625 C10.81565981 110.30066171 12.17640523 102.70071301 15 95 C15.144375 93.865625 15.28875 92.73125 15.4375 91.5625 C16 89 16 89 18.0625 87.625 C19.0215625 87.315625 19.0215625 87.315625 20 87 C21.23503328 90.70509983 20.59468606 91.74293392 19.3125 95.375 C17.01432187 102.39633043 15.68507069 109.46792809 14.48364258 116.75146484 C13.66961876 121.43177512 12.8806887 125.08291621 10 129 C12.5748212 127.99083177 12.5748212 127.99083177 15 126 C15.26468519 124.44009299 15.51129714 122.87569244 15.68432617 121.30297852 C16.39227905 116.13815291 17.75192814 111.07208683 18.9375 106 C19.20240234 104.85015625 19.46730469 103.7003125 19.74023438 102.515625 C20.47751256 99.33965743 21.23197024 96.16865761 22 93 C22.17982422 92.24581787 22.35964844 91.49163574 22.54492188 90.71459961 C23.67737943 86.31371826 25.1770436 84.5151029 29 82 C33.74719743 83.8444525 34.77070694 86.87783392 36.84765625 91.296875 C38.13739764 94.32230226 39.20127823 97.3545302 40.1796875 100.4921875 C42.11026123 106.39422718 44.22039258 112.44078517 47 118 C46.34 118.66 45.68 119.32 45 120 C45 120.66 45 121.32 45 122 C44.05125 122.0825 43.1025 122.165 42.125 122.25 C38.00578427 122.82900623 34.48703516 124.35127798 30.67578125 125.96484375 C27.95224917 127.01847295 25.27221562 127.74368849 22.4375 128.4375 C17.8507938 129.61970737 14.18353413 131.39605651 10.12109375 133.79296875 C4.42017784 137.03713637 -0.45911344 138.40880541 -7 138 C-7 138.66 -7 139.32 -7 140 C-9.31 140.33 -11.62 140.66 -14 141 C-14.79441072 139.12616097 -15.58539974 137.25087114 -16.375 135.375 C-16.81585938 134.33085937 -17.25671875 133.28671875 -17.7109375 132.2109375 C-18.13632813 131.15132812 -18.56171875 130.09171875 -19 129 C-19.36996094 128.10023438 -19.73992187 127.20046875 -20.12109375 126.2734375 C-21.37065039 121.61953323 -21.50693213 117.04982241 -21.6875 112.25 C-21.73455078 111.29222656 -21.78160156 110.33445312 -21.83007812 109.34765625 C-22.134583 102.26916599 -22.134583 102.26916599 -21 100 C-21.9075 100.0825 -22.815 100.165 -23.75 100.25 C-27 100 -27 100 -29.25 98.5 C-32.04390691 94.50870441 -33.3602874 90.52201182 -32.671875 85.703125 C-32.19461054 83.78043104 -31.6062175 81.88601001 -31 80 C-31.7425 79.9175 -32.485 79.835 -33.25 79.75 C-36.6429058 78.82466205 -37.83969682 77.75624889 -40 75 C-42.24881133 70.16505564 -42.7540966 65.25039759 -42 60 C-39.56977078 55.04607121 -36.61467005 52.72685049 -32 50 C-32.62519531 49.46761719 -33.25039062 48.93523437 -33.89453125 48.38671875 C-40.78804058 40.57236958 -39.64914006 24.99345895 -40 15 C-35.23735403 15.47887665 -32.77358348 17.49488642 -29.1875 20.5625 C-28.21167969 21.38878906 -27.23585937 22.21507812 -26.23046875 23.06640625 C-25.49441406 23.70449219 -24.75835937 24.34257812 -24 25 C-22.47710718 23.47710718 -22.71600951 21.97177367 -22.53515625 19.8515625 C-22.41817383 18.59085938 -22.41817383 18.59085938 -22.29882812 17.3046875 C-22.14198962 15.52632035 -21.98831411 13.74767125 -21.83789062 11.96875 C-21.71897461 10.70417969 -21.71897461 10.70417969 -21.59765625 9.4140625 C-21.53070557 8.6401416 -21.46375488 7.8662207 -21.39477539 7.06884766 C-21 5 -21 5 -19 2 C-14.38131056 3.75191668 -13.07651067 6.77995853 -10.99609375 11.0703125 C-10.64675781 11.78960937 -10.29742187 12.50890625 -9.9375 13.25 C-9.61652344 13.93578125 -9.29554688 14.6215625 -8.96484375 15.328125 C-8.10147426 17.17890652 -8.10147426 17.17890652 -6 18 C-5.938125 16.700625 -5.87625 15.40125 -5.8125 14.0625 C-5.23940644 8.59206147 -2.9285997 4.57120912 0 0 Z " fill="#111111" transform="translate(175,186)"/>
<path d="M0 0 C1.25 2.125 1.25 2.125 2 4 C2.66 4 3.32 4 4 4 C6.56441761 8.80828302 6.66623251 13.69365404 6 19 C3.53348214 26.46651786 3.53348214 26.46651786 1 29 C1.58007812 29.23074219 2.16015625 29.46148437 2.7578125 29.69921875 C7.91623187 31.85281628 12.30456126 33.73603222 16 38 C17.69248512 44.61249999 15.14313954 51.21164401 12 57 C9.70497584 59.90253055 8.39715076 60.823848 4.73828125 61.28515625 C-0.74861903 61.20953282 -3.63951851 59.90970439 -7.5 56 C-8.1290625 55.278125 -8.758125 54.55625 -9.40625 53.8125 C-10.88630277 51.90002485 -10.88630277 51.90002485 -13 51 C-13.495 51.99 -13.495 51.99 -14 53 C-14.99 52.505 -14.99 52.505 -16 52 C-16.09706112 58.11485027 -15.77040851 63.93303301 -15 70 C-19.10336581 71.6968806 -22.06518191 70.17966396 -26.0625 68.6875 C-27.29097656 68.23761719 -28.51945312 67.78773438 -29.78515625 67.32421875 C-33 66 -33 66 -36 64 C-35.46512323 59.81013196 -34.1610304 57.49994696 -31.5 54.25 C-30.8709375 53.47140625 -30.241875 52.6928125 -29.59375 51.890625 C-28.75936615 50.9008167 -27.9154007 49.9154007 -27 49 C-28.03640625 48.75765625 -29.0728125 48.5153125 -30.140625 48.265625 C-31.51059929 47.92782312 -32.88038115 47.58924016 -34.25 47.25 C-35.27287109 47.01410156 -35.27287109 47.01410156 -36.31640625 46.7734375 C-40.62848101 45.68495261 -43.21830001 44.49778117 -46 41 C-48.45598221 36.08803558 -47.57798533 29.35899019 -47 24 C-45.61499654 20.71381098 -44.04819988 18.84445215 -41 17 C-37.40703037 15.57007067 -34.53588539 15.36706424 -30.93359375 16.8515625 C-29 17.9375 -29 17.9375 -26 20 C-25.76216797 18.78763672 -25.76216797 18.78763672 -25.51953125 17.55078125 C-23.93409517 10.2893088 -22.61707209 6.22532309 -16.3671875 1.859375 C-11.4615656 -1.26438424 -5.13314611 -3.99244698 0 0 Z " fill="#0C0C0C" transform="translate(335,216)"/>
<path d="M0 0 C0.70125 0.2475 1.4025 0.495 2.125 0.75 C2.125 1.41 2.125 2.07 2.125 2.75 C-3.625 5.75 -3.625 5.75 -5.875 5.75 C-6.535 9.05 -7.195 12.35 -7.875 15.75 C-6.555 15.42 -5.235 15.09 -3.875 14.75 C-3.545 13.76 -3.215 12.77 -2.875 11.75 C1.45833333 8.75 1.45833333 8.75 4.125 8.75 C4.455 7.76 4.785 6.77 5.125 5.75 C6.115 6.08 7.105 6.41 8.125 6.75 C8.125 7.74 8.125 8.73 8.125 9.75 C7.135 9.75 6.145 9.75 5.125 9.75 C5.125 10.41 5.125 11.07 5.125 11.75 C3.55078125 13.51171875 3.55078125 13.51171875 1.4375 15.4375 C0.75300781 16.08074219 0.06851563 16.72398437 -0.63671875 17.38671875 C-2.875 18.75 -2.875 18.75 -5.64453125 18.45703125 C-6.38058594 18.22371094 -7.11664063 17.99039063 -7.875 17.75 C-7.875 18.74 -7.875 19.73 -7.875 20.75 C-7.215 20.75 -6.555 20.75 -5.875 20.75 C-5.276875 21.36875 -4.67875 21.9875 -4.0625 22.625 C-1.74994294 24.871484 0.09699019 25.7406634 3.125 26.75 C3.021875 26.028125 2.91875 25.30625 2.8125 24.5625 C3.2535967 20.5926297 5.12983682 19.24596932 8.125 16.75 C8.785 16.75 9.445 16.75 10.125 16.75 C10.125 15.76 10.125 14.77 10.125 13.75 C11.445 14.08 12.765 14.41 14.125 14.75 C13.795 16.07 13.465 17.39 13.125 18.75 C12.465 18.75 11.805 18.75 11.125 18.75 C11.125 19.41 11.125 20.07 11.125 20.75 C10.465 21.08 9.805 21.41 9.125 21.75 C9.125 23.4 9.125 25.05 9.125 26.75 C9.7025 26.605625 10.28 26.46125 10.875 26.3125 C12.95833333 25.79166667 15.04166667 25.27083333 17.125 24.75 C17.455 25.74 17.785 26.73 18.125 27.75 C11.89059546 31.78402647 11.89059546 31.78402647 8.3125 31.625 C6.125 30.75 6.125 30.75 4.125 28.75 C3.78679834 30.3323006 3.45464061 31.91589375 3.125 33.5 C2.939375 34.38171875 2.75375 35.2634375 2.5625 36.171875 C2.01346325 38.97143965 2.01346325 38.97143965 2.125 42.75 C2.785 43.08 3.445 43.41 4.125 43.75 C4.125 44.41 4.125 45.07 4.125 45.75 C6.105 45.75 8.085 45.75 10.125 45.75 C10.125 46.41 10.125 47.07 10.125 47.75 C10.681875 47.811875 11.23875 47.87375 11.8125 47.9375 C15.09772942 49.09176979 16.732803 51.24388886 19.125 53.75 C20.094375 54.53375 21.06375 55.3175 22.0625 56.125 C24.33636605 57.97541651 26.19538555 59.92809289 28.0625 62.1875 C31.07147682 65.82700511 34.47867419 68.7701803 38.125 71.75 C38.30675781 70.55503906 38.48851562 69.36007812 38.67578125 68.12890625 C39.94065981 60.05066171 41.30140523 52.45071301 44.125 44.75 C44.269375 43.615625 44.41375 42.48125 44.5625 41.3125 C45.125 38.75 45.125 38.75 47.1875 37.375 C47.826875 37.16875 48.46625 36.9625 49.125 36.75 C50.36003328 40.45509983 49.71968606 41.49293392 48.4375 45.125 C46.13932187 52.14633043 44.81007069 59.21792809 43.60864258 66.50146484 C42.79461876 71.18177512 42.0056887 74.83291621 39.125 78.75 C41.6998212 77.74083177 41.6998212 77.74083177 44.125 75.75 C44.38968519 74.19009299 44.63629714 72.62569244 44.80932617 71.05297852 C45.51727905 65.88815291 46.87692814 60.82208683 48.0625 55.75 C48.32740234 54.60015625 48.59230469 53.4503125 48.86523438 52.265625 C49.60251256 49.08965743 50.35697024 45.91865761 51.125 42.75 C51.30482422 41.99581787 51.48464844 41.24163574 51.66992188 40.46459961 C52.80237943 36.06371826 54.3020436 34.2651029 58.125 31.75 C62.87219743 33.5944525 63.89570694 36.62783392 65.97265625 41.046875 C67.26239764 44.07230226 68.32627823 47.1045302 69.3046875 50.2421875 C71.23526123 56.14422718 73.34539258 62.19078517 76.125 67.75 C75.465 68.41 74.805 69.07 74.125 69.75 C74.125 70.41 74.125 71.07 74.125 71.75 C73.17625 71.8325 72.2275 71.915 71.25 72 C67.13078427 72.57900623 63.61203516 74.10127798 59.80078125 75.71484375 C57.07724917 76.76847295 54.39721562 77.49368849 51.5625 78.1875 C46.9757938 79.36970737 43.30853413 81.14605651 39.24609375 83.54296875 C33.54517784 86.78713637 28.66588656 88.15880541 22.125 87.75 C22.125 88.41 22.125 89.07 22.125 89.75 C18.66 90.245 18.66 90.245 15.125 90.75 C14.33058928 88.87616097 13.53960026 87.00087114 12.75 85.125 C12.08871094 83.55878906 12.08871094 83.55878906 11.4140625 81.9609375 C10.98867187 80.90132813 10.56328125 79.84171875 10.125 78.75 C9.75503906 77.85023438 9.38507813 76.95046875 9.00390625 76.0234375 C7.75434961 71.36953323 7.61806787 66.79982241 7.4375 62 C7.39044922 61.04222656 7.34339844 60.08445312 7.29492188 59.09765625 C6.990417 52.01916599 6.990417 52.01916599 8.125 49.75 C7.2175 49.8325 6.31 49.915 5.375 50 C2.125 49.75 2.125 49.75 -0.125 48.25 C-2.91890691 44.25870441 -4.2352874 40.27201182 -3.546875 35.453125 C-3.06961054 33.53043104 -2.4812175 31.63601001 -1.875 29.75 C-2.6175 29.6675 -3.36 29.585 -4.125 29.5 C-7.5179058 28.57466205 -8.71469682 27.50624889 -10.875 24.75 C-13.12381133 19.91505564 -13.6290966 15.00039759 -12.875 9.75 C-10.31332245 4.52811885 -6.28385622 -0.54642228 0 0 Z " fill="#060606" transform="translate(145.875,236.25)"/>
<path d="M0 0 C0.8394882 2.10171867 1.67139656 4.20646625 2.5 6.3125 C2.9640625 7.48425781 3.428125 8.65601563 3.90625 9.86328125 C5 13 5 13 5 16 C3.39536551 15.68991116 1.79130769 15.37683713 0.1875 15.0625 C-0.70582031 14.88847656 -1.59914062 14.71445313 -2.51953125 14.53515625 C-5 14 -5 14 -8 13 C-7.67 14.32 -7.34 15.64 -7 17 C-5.57107422 17.09474609 -5.57107422 17.09474609 -4.11328125 17.19140625 C5.85187073 18.16436559 5.85187073 18.16436559 8.9375 20.41015625 C11.49191349 23.91449225 12.78128195 27.94021028 14.19921875 32.00390625 C15.56954968 35.41970676 17.3271643 38.445957 20 41 C23.16999144 42.04617091 23.16999144 42.04617091 26 42 C25 45 25 45 22 47 C21.04216263 49.79621329 21.04216263 49.79621329 20.4375 53.0625 C20.18871094 54.23683594 19.93992188 55.41117187 19.68359375 56.62109375 C19.45800781 57.73613281 19.23242188 58.85117187 19 60 C17.56323589 66.73682729 15.85976908 73.36682363 14 80 C10.23845262 78.74615087 8.72808802 76.85799698 6 74 C4.6078125 72.6696875 4.6078125 72.6696875 3.1875 71.3125 C1 69 1 69 1 67 C0.41605469 66.731875 -0.16789062 66.46375 -0.76953125 66.1875 C-3.02298004 64.98776545 -4.76302256 63.66982858 -6.6875 62 C-7.28949219 61.484375 -7.89148438 60.96875 -8.51171875 60.4375 C-10 59 -10 59 -11 57 C-12.485 56.505 -12.485 56.505 -14 56 C-14 55.34 -14 54.68 -14 54 C-15.98 54 -17.96 54 -20 54 C-20 53.34 -20 52.68 -20 52 C-20.99 51.67 -21.98 51.34 -23 51 C-23.22577402 45.5814234 -22.46670113 41.22512279 -21 36 C-19.948125 36.7734375 -19.948125 36.7734375 -18.875 37.5625 C-15.32793857 39.33603072 -13.7505444 39.14147004 -10 38 C-8.10041919 36.68681738 -8.10041919 36.68681738 -7 35 C-7 34.34 -7 33.68 -7 33 C-7.7425 33.515625 -8.485 34.03125 -9.25 34.5625 C-12 36 -12 36 -14.3125 35.6875 C-14.869375 35.460625 -15.42625 35.23375 -16 35 C-16 33.35 -16 31.7 -16 30 C-15.01 29.67 -14.02 29.34 -13 29 C-13 28.34 -13 27.68 -13 27 C-12.34 27 -11.68 27 -11 27 C-11 25.68 -11 24.36 -11 23 C-11.99 22.67 -12.98 22.34 -14 22 C-14 22.99 -14 23.98 -14 25 C-15.52329028 26.2315964 -17.04866 27.46105092 -18.59765625 28.66015625 C-20.58010118 30.55424709 -20.84692284 32.32114968 -21 35 C-24.40312738 33.94124926 -27.01353231 32.99097846 -30 31 C-30 30.34 -30 29.68 -30 29 C-30.66 29 -31.32 29 -32 29 C-32 28.01 -32 27.02 -32 26 C-31.29875 26.12375 -30.5975 26.2475 -29.875 26.375 C-26.03820131 25.874548 -24.81291073 24.14030986 -22.33203125 21.3125 C-21 20 -21 20 -19 20 C-19 19.34 -19 18.68 -19 18 C-18.01 18 -17.02 18 -16 18 C-16.33 17.01 -16.66 16.02 -17 15 C-17.66 15 -18.32 15 -19 15 C-19.61875 15.61875 -20.2375 16.2375 -20.875 16.875 C-22.9087857 18.9087857 -24.45856111 19.7702715 -27 21 C-27.53625 21.53625 -28.0725 22.0725 -28.625 22.625 C-29.305625 23.305625 -29.305625 23.305625 -30 24 C-30.66 24 -31.32 24 -32 24 C-32.31578947 17.05263158 -32.31578947 17.05263158 -30 14 C-24.85714286 11 -24.85714286 11 -22 11 C-22.66 9.68 -23.32 8.36 -24 7 C-19.26561834 5.40698479 -14.51419321 3.87580812 -9.75 2.375 C-9.03070313 2.14554688 -8.31140625 1.91609375 -7.5703125 1.6796875 C-2.2313058 0 -2.2313058 0 0 0 Z " fill="#F4F4F4" transform="translate(170,228)"/>
<path d="M0 0 C3 1 3 1 4.9375 4.0625 C6.92948356 8.29258091 8.1052496 12.67161106 9.25 17.1875 C9.42523193 17.87658447 9.60046387 18.56566895 9.78100586 19.27563477 C10.65548871 22.91586236 11.20360608 26.2551024 11 30 C10.319375 30.08636719 9.63875 30.17273438 8.9375 30.26171875 C-1.11837252 31.71928538 -10.61456365 34.66502701 -20.140625 38.1484375 C-23.05473029 39.01629946 -25.34873835 39.20679086 -28.375 39.125 C-29.24898437 39.10695312 -30.12296875 39.08890625 -31.0234375 39.0703125 C-31.67570313 39.04710937 -32.32796875 39.02390625 -33 39 C-37.64015836 31.66555614 -37.78051961 24.42804715 -38 16 C-34.66615196 16.73540765 -32.57746188 17.69869475 -30 20 C-30 20.66 -30 21.32 -30 22 C-28.8553125 22.433125 -28.8553125 22.433125 -27.6875 22.875 C-25 24 -25 24 -22 26 C-21.95101562 25.09378906 -21.90203125 24.18757813 -21.8515625 23.25390625 C-21.42420873 16.29098709 -20.74718596 9.75578571 -19 3 C-18.01 3 -17.02 3 -16 3 C-15.74605469 3.65226563 -15.49210937 4.30453125 -15.23046875 4.9765625 C-13.34261472 9.77043902 -11.39996262 14.44007102 -9 19 C-8.34 19 -7.68 19 -7 19 C-6.61908203 17.57107422 -6.61908203 17.57107422 -6.23046875 16.11328125 C-5.88628906 14.85902344 -5.54210937 13.60476562 -5.1875 12.3125 C-4.85105469 11.07113281 -4.51460937 9.82976562 -4.16796875 8.55078125 C-3.10478134 5.3185493 -1.87943655 2.81646223 0 0 Z " fill="#F5F5F5" transform="translate(176,191)"/>
<path d="M0 0 C-0.33 0.66 -0.66 1.32 -1 2 C-0.01 2.495 -0.01 2.495 1 3 C-0.42124614 5.84249228 -2.03370095 6.00426069 -5 7 C-6.76218725 7.34002388 -8.53480468 7.62858679 -10.3125 7.875 C-19.7288999 9.3513985 -29.13913592 11.55266894 -38.125 14.75 C-41.50680669 15.95083347 -44.38195456 16.27831119 -48 16 C-48 16.66 -48 17.32 -48 18 C-48.70382813 18.17015625 -49.40765625 18.3403125 -50.1328125 18.515625 C-64.3841634 21.75980017 -64.3841634 21.75980017 -78.0625 26.75 C-80.99222187 27.99669016 -82.85867253 28.28557522 -86 28 C-86 28.66 -86 29.32 -86 30 C-87.98 30.66 -89.96 31.32 -92 32 C-91.88541307 33.43836751 -91.75790884 34.87570966 -91.625 36.3125 C-91.55539063 37.11300781 -91.48578125 37.91351563 -91.4140625 38.73828125 C-91.10435574 41.27224441 -91.10435574 41.27224441 -89 44 C-88.45806682 46.13084721 -87.98814604 48.28041242 -87.5625 50.4375 C-85.50216781 60.41114788 -83.31363763 69.71435258 -79.25390625 79.08203125 C-75.8770474 86.94032894 -73.34473964 95.04671041 -70.86425781 103.21972656 C-69.48421701 107.6850679 -67.79153825 111.82032923 -65.78125 116.02734375 C-64.4827781 119.30598529 -64.25466958 122.49829324 -64 126 C-63.34 126 -62.68 126 -62 126 C-62.33 126.66 -62.66 127.32 -63 128 C-64.32 128 -65.64 128 -67 128 C-71.04670138 119.4519117 -74.46102828 111.17404831 -76.58325195 101.94458008 C-78.96149278 91.64223786 -82.44323959 81.85183 -86.9375 72.2734375 C-89.04594603 67.76198312 -90.06579944 63.58983024 -90.75 58.6875 C-91.70697666 52.42793137 -93.7003477 46.75908477 -95.96777344 40.87573242 C-97.38052578 37.13735223 -98.50579024 34.01070293 -98 30 C-96.4375 26.75 -96.4375 26.75 -94 24 C-90.8125 23.375 -90.8125 23.375 -87 23 C-85.58380221 22.42262706 -84.18829363 21.79295778 -82.8125 21.125 C-78.5039862 19.10763568 -74.27483808 17.99476601 -69.65234375 16.91796875 C-64.11188875 15.52544797 -58.66622378 13.83243174 -53.20581055 12.15673828 C-48.16433656 10.61785113 -43.11810728 9.25967894 -38 8 C-35.93480256 7.40511923 -33.87224715 6.80098616 -31.8125 6.1875 C-25.51244254 4.37965743 -19.17912817 2.74446412 -12.8125 1.1875 C-11.89122314 0.95635498 -10.96994629 0.72520996 -10.02075195 0.48706055 C-9.15409912 0.27863525 -8.28744629 0.07020996 -7.39453125 -0.14453125 C-6.61956299 -0.33378174 -5.84459473 -0.52303223 -5.04614258 -0.71801758 C-3 -1 -3 -1 0 0 Z " fill="#121212" transform="translate(174,150)"/>
<path d="M0 0 C1.8125 0.5625 1.8125 0.5625 4 2 C6.32159743 6.81944179 7.88525669 11.72385565 9.3125 16.875 C12.65516474 28.58142216 16.87596337 39.95516777 21.06640625 51.37890625 C22.11427789 54.32083876 23.0903609 57.28222442 24.0625 60.25 C25.11412327 63.45005675 26.20757687 66.47327527 27.5625 69.5625 C29.1380182 73.33004353 30.14850969 77.07304268 31.171875 81.01953125 C32.32648212 85.17502764 33.77063285 89.21651527 35.23046875 93.2734375 C36.02701417 96.0957152 36.45150442 98.09677804 36 101 C34 102.8125 34 102.8125 32 104 C28.68175146 94.34389673 25.51429339 84.76165277 23.15234375 74.8203125 C22.15704174 71.5206333 20.99162338 68.50835559 19.64453125 65.34375 C16.99750331 59.12074263 14.8345485 52.8048247 12.75 46.375 C10.37615317 39.11062205 7.97505622 31.86564384 5.3828125 24.67578125 C4.96290039 23.50289551 4.54298828 22.33000977 4.11035156 21.12158203 C3.30313049 18.87763509 2.48520978 16.63750066 1.65527344 14.40185547 C1.29208008 13.38623535 0.92888672 12.37061523 0.5546875 11.32421875 C0.22968262 10.43822998 -0.09532227 9.55224121 -0.43017578 8.6394043 C-1.1110115 5.48579891 -0.69970689 3.12522394 0 0 Z " fill="#161616" transform="translate(250,236)"/>
<path d="M0 0 C3.30103706 1.28820958 4.57380379 3.12743881 6.5625 6 C8.5425 5.67 10.5225 5.34 12.5625 5 C14.777515 8.3225225 14.75660876 8.87731591 14.25 12.625 C14.15074219 13.42164063 14.05148438 14.21828125 13.94921875 15.0390625 C13.5625 17 13.5625 17 12.5625 18 C10.22952567 18.04092937 7.89544775 18.04241723 5.5625 18 C6.160625 18.825 6.75875 19.65 7.375 20.5 C9.81050901 24.12292799 11.14324746 27.88416763 12.5625 32 C11.9025 32 11.2425 32 10.5625 32 C10.5625 32.66 10.5625 33.32 10.5625 34 C9.5725 34 8.5825 34 7.5625 34 C7.2325 34.99 6.9025 35.98 6.5625 37 C5.2425 36.67 3.9225 36.34 2.5625 36 C1.37161014 30.61972975 0.2705481 25.54708616 0.5625 20 C-0.4275 20 -1.4175 20 -2.4375 20 C-2.7675 20.99 -3.0975 21.98 -3.4375 23 C-5.7475 23 -8.0575 23 -10.4375 23 C-10.61423419 18.4932782 -10.57301182 15.03374456 -8.4375 11 C-7.7775 10.67 -7.1175 10.34 -6.4375 10 C-6.293125 8.88625 -6.14875 7.7725 -6 6.625 C-5.4375 3 -5.4375 3 -4.1875 1 C-2.4375 0 -2.4375 0 0 0 Z " fill="#101010" transform="translate(112.4375,213)"/>
<path d="M0 0 C2 3 2 3 1.8125 5.9375 C1.00070842 8.9973298 0.07524374 10.65407229 -2 13 C-0.35 14.32 1.3 15.64 3 17 C1.50733258 20.79951706 -0.55281135 22.8354862 -4 25 C-6.75 24.6875 -6.75 24.6875 -9 24 C-10.3819554 25.17320459 -10.3819554 25.17320459 -10.375 28.4375 C-10.58125 29.613125 -10.7875 30.78875 -11 32 C-14.22791555 34.1519437 -15.28400809 34.20086443 -19 34 C-19.66 32.68 -20.32 31.36 -21 30 C-19.71034824 28.62437146 -18.37310707 27.29233607 -17 26 C-16.34 26 -15.68 26 -15 26 C-15 24.68 -15 23.36 -15 22 C-16.98 21.67 -18.96 21.34 -21 21 C-21.95465783 18.83032311 -22.14401212 17.43671207 -21.3984375 15.17578125 C-20.64129615 13.4315257 -19.82390802 11.71372869 -19 10 C-16.1875 9.75 -16.1875 9.75 -13 10 C-11.125 11.8125 -11.125 11.8125 -10 14 C-10 14.99 -10 15.98 -10 17 C-8.68 17 -7.36 17 -6 17 C-6 16.01 -6 15.02 -6 14 C-6.639375 13.87625 -7.27875 13.7525 -7.9375 13.625 C-8.618125 13.41875 -9.29875 13.2125 -10 13 C-11.54586876 9.90826248 -11.29359521 7.40570448 -11 4 C-7.9621971 0.01943068 -4.88626918 -1.89145904 0 0 Z " fill="#0D0D0D" transform="translate(293,191)"/>
<path d="M0 0 C2.475 0.495 2.475 0.495 5 1 C5.495 2.485 5.495 2.485 6 4 C5.01 4.66 4.02 5.32 3 6 C2.34 5.67 1.68 5.34 1 5 C-0.70961461 9.0276056 -1.94432621 13.10143014 -3.125 17.3125 C-3.47820312 18.56675781 -3.83140625 19.82101563 -4.1953125 21.11328125 C-4.46085937 22.06589844 -4.72640625 23.01851562 -5 24 C-6.32 24 -7.64 24 -9 24 C-12.34782974 18.75506674 -13.94513949 14.12096691 -15 8 C-15.99 8 -16.98 8 -18 8 C-18.05534912 8.62567871 -18.11069824 9.25135742 -18.16772461 9.89599609 C-18.42013899 12.72272197 -18.67874193 15.54884807 -18.9375 18.375 C-19.02451172 19.35984375 -19.11152344 20.3446875 -19.20117188 21.359375 C-19.28818359 22.30039063 -19.37519531 23.24140625 -19.46484375 24.2109375 C-19.543396 25.08024902 -19.62194824 25.94956055 -19.70288086 26.84521484 C-20 29 -20 29 -21 31 C-23.66666667 29.66666667 -26.33333333 28.33333333 -29 27 C-29 26.34 -29 25.68 -29 25 C-31.33214148 23.79371992 -33.49642139 22.8345262 -36 22 C-35.91224337 24.20904631 -35.80405633 26.41728593 -35.6875 28.625 C-35.62949219 29.85476562 -35.57148438 31.08453125 -35.51171875 32.3515625 C-34.97853045 36.153073 -33.8273626 38.6588169 -32 42 C-32 42.66 -32 43.32 -32 44 C-29.36 44.33 -26.72 44.66 -24 45 C-23.67 45.99 -23.34 46.98 -23 48 C-28.76171875 49.953125 -28.76171875 49.953125 -31 50 C-34.27676634 48.0705091 -35.72507126 46.70765108 -37.109375 43.14453125 C-38.91393087 33.75864006 -39.66498773 24.5420737 -40 15 C-35.23735403 15.47887665 -32.77358348 17.49488642 -29.1875 20.5625 C-28.21167969 21.38878906 -27.23585937 22.21507812 -26.23046875 23.06640625 C-25.49441406 23.70449219 -24.75835937 24.34257812 -24 25 C-22.47710718 23.47710718 -22.71600951 21.97177367 -22.53515625 19.8515625 C-22.41817383 18.59085938 -22.41817383 18.59085938 -22.29882812 17.3046875 C-22.14198962 15.52632035 -21.98831411 13.74767125 -21.83789062 11.96875 C-21.71897461 10.70417969 -21.71897461 10.70417969 -21.59765625 9.4140625 C-21.53070557 8.6401416 -21.46375488 7.8662207 -21.39477539 7.06884766 C-21 5 -21 5 -19 2 C-14.38131056 3.75191668 -13.07651067 6.77995853 -10.99609375 11.0703125 C-10.64675781 11.78960937 -10.29742187 12.50890625 -9.9375 13.25 C-9.61652344 13.93578125 -9.29554688 14.6215625 -8.96484375 15.328125 C-8.10147426 17.17890652 -8.10147426 17.17890652 -6 18 C-5.938125 16.700625 -5.87625 15.40125 -5.8125 14.0625 C-5.23940644 8.59206147 -2.9285997 4.57120912 0 0 Z " fill="#1A1A1A" transform="translate(175,186)"/>
<path d="M0 0 C0.33 0.99 0.66 1.98 1 3 C1.721875 2.79375 2.44375 2.5875 3.1875 2.375 C6.46795049 1.9376066 8.07524823 2.53762412 11 4 C12 5 12 5 12.125 8.375 C12 12 12 12 11 15 C10.855625 15.804375 10.71125 16.60875 10.5625 17.4375 C9.5862069 21.88505747 9.5862069 21.88505747 8 24 C5.0625 24.9375 5.0625 24.9375 2 25 C-0.59230504 23.21220342 -0.98667605 22.03997185 -2 19 C-2.99 19.66 -3.98 20.32 -5 21 C-7.6875 20.625 -7.6875 20.625 -10 20 C-11.125 14.375 -11.125 14.375 -10 11 C-7.69 11 -5.38 11 -3 11 C-3 10.34 -3 9.68 -3 9 C-3.66 9 -4.32 9 -5 9 C-6.2890625 7.25 -6.2890625 7.25 -7.625 5 C-8.07101563 4.2575 -8.51703125 3.515 -8.9765625 2.75 C-9.31429687 2.1725 -9.65203125 1.595 -10 1 C-6.65700759 -2.34299241 -3.94220374 -2.7187612 0 0 Z " fill="#0A0A0A" transform="translate(247,279)"/>
<path d="M0 0 C5.75 1.875 5.75 1.875 8 3 C8 4.65 8 6.3 8 8 C7.01 8.495 7.01 8.495 6 9 C5.34444881 11.52733235 5.34444881 11.52733235 5 14 C7.31 14.33 9.62 14.66 12 15 C12.625 17.3125 12.625 17.3125 13 20 C12.34 20.99 11.68 21.98 11 23 C7.375 23.1875 7.375 23.1875 4 23 C3.71125 23.94875 3.4225 24.8975 3.125 25.875 C2 29 2 29 0 31 C-2.77457104 31.35571424 -4.37896796 31.36405327 -6.8125 29.9375 C-8 28 -8 28 -7.9375 24.5625 C-7.60140677 20.93106589 -7.60140677 20.93106589 -10.0625 18.8125 C-10.701875 18.214375 -11.34125 17.61625 -12 17 C-11.82246387 13.98188578 -11.16264785 13.16264785 -9 11 C-2.53846154 9.73076923 -2.53846154 9.73076923 0 11 C0 7.37 0 3.74 0 0 Z " fill="#0A0A0A" transform="translate(336,314)"/>
<path d="M0 0 C2.65421297 2.65421297 2.72036277 4.70422978 3.4375 8.375 C3.69660156 9.63828125 3.95570312 10.9015625 4.22265625 12.203125 C4.47917969 13.45609375 4.73570313 14.7090625 5 16 C6.59270965 23.39017278 8.73917161 30.14367062 11.74609375 37.08203125 C15.1229526 44.94032894 17.65526036 53.04671041 20.13574219 61.21972656 C21.51578299 65.6850679 23.20846175 69.82032923 25.21875 74.02734375 C26.5172219 77.30598529 26.74533042 80.49829324 27 84 C27.66 84 28.32 84 29 84 C28.67 84.66 28.34 85.32 28 86 C26.68 86 25.36 86 24 86 C19.95329862 77.4519117 16.53897172 69.17404831 14.41674805 59.94458008 C12.05865798 49.72952926 8.69423662 39.91026638 4.11328125 30.46484375 C1.69909062 25.11974099 0.56067101 19.92510231 -0.125 14.125 C-0.21136719 13.43664062 -0.29773438 12.74828125 -0.38671875 12.0390625 C-0.59659566 10.36004725 -0.79907087 8.68010952 -1 7 C-0.34 7 0.32 7 1 7 C0.67 4.69 0.34 2.38 0 0 Z " fill="#151515" transform="translate(83,192)"/>
<path d="M0 0 C2.3125 -0.1875 2.3125 -0.1875 5 0 C6.02297922 0.97648017 7.01904252 1.98131338 8 3 C9.54080126 4.09372939 11.10481211 5.15531225 12.6875 6.1875 C13.49574219 6.71730469 14.30398437 7.24710937 15.13671875 7.79296875 C15.75160156 8.19128906 16.36648438 8.58960938 17 9 C16.01 6.69 15.02 4.38 14 2 C16 0 16 0 19.125 -0.125 C20.07375 -0.08375 21.0225 -0.0425 22 0 C22.04898437 0.94101562 22.09796875 1.88203125 22.1484375 2.8515625 C22.22320312 4.09679687 22.29796875 5.34203125 22.375 6.625 C22.44460938 7.85476563 22.51421875 9.08453125 22.5859375 10.3515625 C23.11924606 15.05071526 24.21574884 18.72196108 26.6875 22.75 C27.120625 23.4925 27.55375 24.235 28 25 C27.67 25.66 27.34 26.32 27 27 C26.01 27 25.02 27 24 27 C23.01 24.03 22.02 21.06 21 18 C17.30209954 19.23263349 17.0645154 20.20052451 15.3125 23.5625 C14.65701172 24.80193359 14.65701172 24.80193359 13.98828125 26.06640625 C13.66214844 26.70449219 13.33601562 27.34257812 13 28 C12.01 27.67 11.02 27.34 10 27 C11.41292095 22.1725201 13.42974154 18.2837641 16 14 C14.94039062 13.62875 14.94039062 13.62875 13.859375 13.25 C10.63975475 11.84251574 8.07930008 10.07991789 5.25 8 C4.28578125 7.29875 3.3215625 6.5975 2.328125 5.875 C0 4 0 4 -1 2 C-0.67 1.34 -0.34 0.68 0 0 Z " fill="#121212" transform="translate(241,311)"/>
<path d="M0 0 C1.64726072 3.29452143 1.14670905 6.9443251 1.125 10.5625 C1.11774902 11.78453125 1.11774902 11.78453125 1.11035156 13.03125 C0.99720007 24.34639969 0.99720007 24.34639969 0 29 C-2.046875 30.21875 -2.046875 30.21875 -4 31 C-3.85831863 29.56208484 -3.71148957 28.1246763 -3.5625 26.6875 C-3.48128906 25.88699219 -3.40007812 25.08648437 -3.31640625 24.26171875 C-3 22 -3 22 -2 19 C-5.63 18.01 -9.26 17.02 -13 16 C-13.66 17.32 -14.32 18.64 -15 20 C-15.66666667 21.33333333 -16.33333333 22.66666667 -17 24 C-18.32 23.67 -19.64 23.34 -21 23 C-19.86808754 17.84350991 -17.65736409 15.35431937 -13.94140625 11.87109375 C-11.28650753 9.31234831 -8.94927662 6.51911635 -6.578125 3.69921875 C-4.58708285 1.55539862 -3.03447161 0 0 0 Z " fill="#0D0D0D" transform="translate(306,157)"/>
<path d="M0 0 C0.99 0.33 1.98 0.66 3 1 C2.343621 5.48525648 1.29925791 9.66914029 0 14 C5.55506568 14.54841706 5.55506568 14.54841706 10.375 12.3125 C12.04184731 9.94044806 13.08507332 7.74478005 14 5 C14.99 5 15.98 5 17 5 C16.53741563 10.17323516 14.92112255 12.99359276 11.75 17.0625 C10.98171875 18.06410156 10.2134375 19.06570313 9.421875 20.09765625 C4.81518504 25.61825406 1.95083481 28.50080034 -5 30 C-6.16707926 25.72070938 -5.64386223 22.34607003 -5 18 C-5.33 17.01 -5.66 16.02 -6 15 C-5.01 14.67 -4.02 14.34 -3 14 C-2.86722656 13.07316406 -2.73445313 12.14632813 -2.59765625 11.19140625 C-2.42105469 9.99386719 -2.24445313 8.79632813 -2.0625 7.5625 C-1.88847656 6.36753906 -1.71445312 5.17257812 -1.53515625 3.94140625 C-1 1 -1 1 0 0 Z " fill="#080808" transform="translate(319,347)"/>
<path d="M0 0 C0.66 0 1.32 0 2 0 C1.53444296 6.40140935 -0.14711836 11.26769829 -3 17 C-1.80375 16.95875 -0.6075 16.9175 0.625 16.875 C4.42329953 16.86148292 7.44975618 17.57990247 11 19 C10.67 20.32 10.34 21.64 10 23 C2.575 22.01 2.575 22.01 -5 21 C-4.01 22.98 -3.02 24.96 -2 27 C-2.3125 30.875 -2.3125 30.875 -3 34 C-5 33 -5 33 -5.96142578 30.36376953 C-6.2861084 29.21505371 -6.61079102 28.06633789 -6.9453125 26.8828125 C-7.29980469 25.63628906 -7.65429688 24.38976562 -8.01953125 23.10546875 C-8.20080566 22.45239746 -8.38208008 21.79932617 -8.56884766 21.12646484 C-9.12149137 19.13762677 -9.68663519 17.15267818 -10.25390625 15.16796875 C-13 5.42084478 -13 5.42084478 -13 2 C-10.525 2.99 -10.525 2.99 -8 4 C-7.67 7.63 -7.34 11.26 -7 15 C-6.34 15 -5.68 15 -5 15 C-4.9175 14.195625 -4.835 13.39125 -4.75 12.5625 C-3.79803325 8.04065795 -1.98419821 4.15297299 0 0 Z " fill="#191919" transform="translate(106,183)"/>
<path d="M0 0 C4.1724106 0.51881113 6.25416821 1.71151274 9.3125 4.5625 C10.00988281 5.20316406 10.70726562 5.84382812 11.42578125 6.50390625 C11.94527344 6.99761719 12.46476563 7.49132812 13 8 C12.34 9.32 11.68 10.64 11 12 C11 11.34 11 10.68 11 10 C8.66785852 8.79371992 6.50357861 7.8345262 4 7 C4.08775663 9.20904631 4.19594367 11.41728593 4.3125 13.625 C4.37050781 14.85476562 4.42851562 16.08453125 4.48828125 17.3515625 C5.02146955 21.153073 6.1726374 23.6588169 8 27 C8 27.66 8 28.32 8 29 C10.64 29.33 13.28 29.66 16 30 C16.33 30.99 16.66 31.98 17 33 C11.23828125 34.953125 11.23828125 34.953125 9 35 C5.72323366 33.0705091 4.27492874 31.70765108 2.890625 28.14453125 C1.08606913 18.75864006 0.33501227 9.5420737 0 0 Z " fill="#1F1F1F" transform="translate(135,201)"/>
<path d="M0 0 C2.64 1.32 5.28 2.64 8 4 C7.67 4.99 7.34 5.98 7 7 C7.66 7 8.32 7 9 7 C9.33 9.31 9.66 11.62 10 14 C9.34 13.34 8.68 12.68 8 12 C8 10.68 8 9.36 8 8 C7.01 8 6.02 8 5 8 C5.90428836 13.61735276 5.90428836 13.61735276 9.125 18 C9.74375 18.33 10.3625 18.66 11 19 C10.67 19.66 10.34 20.32 10 21 C9.01 20.67 8.02 20.34 7 20 C7 19.34 7 18.68 7 18 C5.02 18 3.04 18 1 18 C1 17.34 1 16.68 1 16 C0.01 15.67 -0.98 15.34 -2 15 C-2.22577402 9.5814234 -1.46670113 5.22512279 0 0 Z " fill="#EDEDED" transform="translate(149,264)"/>
<path d="M0 0 C1.32 0.33 2.64 0.66 4 1 C3.67 2.32 3.34 3.64 3 5 C2.34 5 1.68 5 1 5 C1 5.66 1 6.32 1 7 C0.01 7.495 0.01 7.495 -1 8 C-1 9.65 -1 11.3 -1 13 C-0.4225 12.855625 0.155 12.71125 0.75 12.5625 C2.83333333 12.04166667 4.91666667 11.52083333 7 11 C7.33 11.99 7.66 12.98 8 14 C1.76559546 18.03402647 1.76559546 18.03402647 -1.8125 17.875 C-4 17 -4 17 -6 15 C-6.33 16.65 -6.66 18.3 -7 20 C-7.33 20 -7.66 20 -8 20 C-8.24069971 13.98250715 -7.98099228 9.35242833 -4 4.625 C-2 3 -2 3 0 3 C0 2.01 0 1.02 0 0 Z " fill="#151515" transform="translate(156,250)"/>
<path d="M0 0 C0.99 0.33 1.98 0.66 3 1 C2.39795066 3.75047923 1.79383449 6.50046426 1.1875 9.25 C1.00735352 10.06815186 0.82720703 10.88630371 0.64160156 11.72924805 C-0.60866678 17.36154096 -1.97361265 22.95060408 -3.484375 28.51953125 C-4.10324031 31.01538304 -4.10324031 31.01538304 -3.921875 33.6796875 C-3.94765625 34.44539063 -3.9734375 35.21109375 -4 36 C-6.5 38.3125 -6.5 38.3125 -9 40 C-9.66 39.67 -10.32 39.34 -11 39 C-10.28650391 37.92685547 -10.28650391 37.92685547 -9.55859375 36.83203125 C-7.95935038 33.92613791 -7.4731169 31.94936684 -7.0625 28.6875 C-6.3089614 23.57736845 -5.26211679 18.62779276 -4 13.625 C-3.8337915 12.95944092 -3.66758301 12.29388184 -3.49633789 11.6081543 C-2.49258271 7.67657414 -1.32918645 3.83327878 0 0 Z " fill="#EEEEEE" transform="translate(195,276)"/>
<path d="M0 0 C0.99 0 1.98 0 3 0 C2.5075072 4.89595787 1.15326233 7.79894374 -1.75 11.75 C-2.76320313 13.16539062 -2.76320313 13.16539062 -3.796875 14.609375 C-7.27754422 18.38627139 -11.0648503 19.15397434 -16 20 C-16.35278301 15.59021242 -16.35278301 15.59021242 -15 13 C-12.03788684 11.250859 -8.98384054 9.93797031 -5.8359375 8.5546875 C-2.90622538 6.94859187 -1.98067912 6.15905051 -0.75 3.125 C-0.37875 1.578125 -0.37875 1.578125 0 0 Z " fill="#161616" transform="translate(333,352)"/>
<path d="M0 0 C1.98 0.99 1.98 0.99 4 2 C4 2.66 4 3.32 4 4 C4.66 4 5.32 4 6 4 C6 4.66 6 5.32 6 6 C6.556875 6.226875 7.11375 6.45375 7.6875 6.6875 C10.67204749 8.38143236 12.62654045 10.51614698 15 13 C16.22495848 14.25412416 17.45428574 15.50399306 18.6875 16.75 C19.55955078 17.63945312 19.55955078 17.63945312 20.44921875 18.546875 C21.95513974 20.09641804 21.95513974 20.09641804 24 21 C23.67 21.66 23.34 22.32 23 23 C20 21 17 19 14 17 C14 16.34 14 15.68 14 15 C11.525 14.01 11.525 14.01 9 13 C9 12.34 9 11.68 9 11 C8.443125 10.773125 7.88625 10.54625 7.3125 10.3125 C4.29791241 8.60151785 2.25225171 6.627627 0 4 C0 2.68 0 1.36 0 0 Z " fill="#E7E7E7" transform="translate(158,290)"/>
<path d="M0 0 C2.89274248 4.02187988 1.83292338 8.01814571 1.1875 12.625 C1.04344727 13.78902344 1.04344727 13.78902344 0.89648438 14.9765625 C0.15838151 20.68323697 0.15838151 20.68323697 -1 23 C-3.49361571 21.79618552 -5.68143083 20.54571278 -8 19 C-8 18.01 -8 17.02 -8 16 C-7.360625 16.185625 -6.72125 16.37125 -6.0625 16.5625 C-5.0415625 16.7790625 -5.0415625 16.7790625 -4 17 C-1.70236523 14.70236523 -2.54091141 9.21068285 -2.37890625 6.1015625 C-2 3 -2 3 0 0 Z " fill="#141414" transform="translate(155,194)"/>
<path d="M0 0 C4.7221744 1.7911696 6.03228843 4.9027051 8.07421875 9.328125 C9.06752036 11.54475595 10.04200459 13.76791931 11 16 C9.35 15.67 7.7 15.34 6 15 C5.34 12.03 4.68 9.06 4 6 C3.01 6 2.02 6 1 6 C0.67 6.66 0.34 7.32 0 8 C-0.66 7.67 -1.32 7.34 -2 7 C-1.125 1.125 -1.125 1.125 0 0 Z " fill="#171717" transform="translate(156,188)"/>
<path d="M0 0 C1.8125 0.5625 1.8125 0.5625 4 2 C5.78686054 5.50990464 7 8.04124604 7 12 C6.34 12 5.68 12 5 12 C5 12.66 5 13.32 5 14 C4.01 14 3.02 14 2 14 C-0.24281523 8.79666866 -1.55577239 5.65735415 0 0 Z " fill="#181818" transform="translate(250,236)"/>
<path d="M0 0 C0.99 0.33 1.98 0.66 3 1 C3 1.99 3 2.98 3 4 C2.01 4 1.02 4 0 4 C0 4.66 0 5.32 0 6 C-1.57421875 7.76171875 -1.57421875 7.76171875 -3.6875 9.6875 C-4.37199219 10.33074219 -5.05648437 10.97398437 -5.76171875 11.63671875 C-8 13 -8 13 -10.76953125 12.70703125 C-11.50558594 12.47371094 -12.24164063 12.24039063 -13 12 C-13 11.34 -13 10.68 -13 10 C-12.360625 9.896875 -11.72125 9.79375 -11.0625 9.6875 C-10.0415625 9.3471875 -10.0415625 9.3471875 -9 9 C-8.67 8.01 -8.34 7.02 -8 6 C-3.66666667 3 -3.66666667 3 -1 3 C-0.67 2.01 -0.34 1.02 0 0 Z " fill="#121212" transform="translate(151,242)"/>
<path d="M0 0 C0.99 0 1.98 0 3 0 C3.33 1.98 3.66 3.96 4 6 C5.6396875 6.2165625 5.6396875 6.2165625 7.3125 6.4375 C11 7 11 7 14 8 C12.32731628 10.02482766 11.0886729 10.96499754 8.625 11.9375 C6 12 6 12 3.25 10.1875 C0.44435594 7.45979049 0.01596346 6.79817307 -0.0625 2.875 C-0.041875 1.92625 -0.02125 0.9775 0 0 Z " fill="#101010" transform="translate(154,272)"/>
<path d="M0 0 C0.99 0.33 1.98 0.66 3 1 C4.1875 3.5625 4.1875 3.5625 5 6 C7.31 6 9.62 6 12 6 C11.375 7.875 11.375 7.875 10 10 C6.875 11.25 6.875 11.25 4 12 C3.13058506 10.76055724 2.27994543 9.50792941 1.4375 8.25 C0.96183594 7.55390625 0.48617187 6.8578125 -0.00390625 6.140625 C-1 4 -1 4 -0.65234375 1.734375 C-0.43707031 1.16203125 -0.22179687 0.5896875 0 0 Z " fill="#131313" transform="translate(167,269)"/>
<path d="M0 0 C0.99 0 1.98 0 3 0 C3.86343731 2.28855702 4.7159811 4.5801928 5.5625 6.875 C5.80935547 7.52597656 6.05621094 8.17695313 6.31054688 8.84765625 C6.93173115 10.54497665 7.47152252 12.27156776 8 14 C7.67 14.66 7.34 15.32 7 16 C5 15 5 15 3 12 C2.01 12.495 2.01 12.495 1 13 C-0.125 8.25 -0.125 8.25 1 6 C0.71887936 3.99199544 0.38932033 1.98985949 0 0 Z " fill="#1A1A1A" transform="translate(262,270)"/>
<path d="M0 0 C2.71240902 2.71240902 2.80870759 5.00866385 3.5625 8.75 C3.81128906 9.96171875 4.06007813 11.1734375 4.31640625 12.421875 C4.9252335 15.60865076 5.48418124 18.79701116 6 22 C5.34 21.67 4.68 21.34 4 21 C4 19.68 4 18.36 4 17 C3.34 17 2.68 17 2 17 C2 18.65 2 20.3 2 22 C1.67 22 1.34 22 1 22 C0.34 17.05 -0.32 12.1 -1 7 C-0.34 7 0.32 7 1 7 C0.67 4.69 0.34 2.38 0 0 Z " fill="#444444" transform="translate(83,192)"/>
<path d="M0 0 C0.99 0.495 0.99 0.495 2 1 C2 1.66 2 2.32 2 3 C2.66 3.33 3.32 3.66 4 4 C4.33 3.67 4.66 3.34 5 3 C6.64826111 5.96687001 7.44271087 8.65626525 8 12 C7.01 11.67 6.02 11.34 5 11 C4.67 11.99 4.34 12.98 4 14 C1.51787516 9.39033958 0 5.27072485 0 0 Z " fill="#0B0B0B" transform="translate(264,281)"/>
<path d="M0 0 C0.66 0 1.32 0 2 0 C1.55643705 6.20988129 0.08467498 10.60540561 -3 16 C-4.65 16 -6.3 16 -8 16 C-8 14.35 -8 12.7 -8 11 C-7.67 12.32 -7.34 13.64 -7 15 C-6.34 15 -5.68 15 -5 15 C-4.9175 14.195625 -4.835 13.39125 -4.75 12.5625 C-3.79803325 8.04065795 -1.98419821 4.15297299 0 0 Z " fill="#5C5C5C" transform="translate(106,183)"/>
<path d="M0 0 C4.29 0.66 8.58 1.32 13 2 C12.67 3.32 12.34 4.64 12 6 C8.37 5.67 4.74 5.34 1 5 C0.67 3.35 0.34 1.7 0 0 Z " fill="#181818" transform="translate(162,241)"/>
<path d="M0 0 C3.69790046 1.23263349 3.9354846 2.20052451 5.6875 5.5625 C6.12449219 6.38878906 6.56148437 7.21507812 7.01171875 8.06640625 C7.33785156 8.70449219 7.66398438 9.34257812 8 10 C7.34 10 6.68 10 6 10 C6 10.66 6 11.32 6 12 C2.15443885 10.71814628 1.57931973 9.21420223 -0.28125 5.7890625 C-1 4 -1 4 -0.75 1.5625 C-0.5025 1.046875 -0.255 0.53125 0 0 Z " fill="#0B0B0B" transform="translate(197,231)"/>
<path d="M0 0 C1.8125 0.1875 1.8125 0.1875 4 1 C5.01187895 2.65948148 6.0126546 4.32580562 7 6 C7.99 6 8.98 6 10 6 C9.34 7.32 8.68 8.64 8 10 C4.9054129 9.6684371 3.97195314 8.97117406 1.75 6.6875 C0 4 0 4 0 0 Z " fill="#151515" transform="translate(176,265)"/>
<path d="M0 0 C0.33 0.66 0.66 1.32 1 2 C-2.82180842 6.4008703 -5.47371099 7.80805531 -11 9 C-11.33 7.35 -11.66 5.7 -12 4 C-11.38511719 3.87882812 -10.77023437 3.75765625 -10.13671875 3.6328125 C-9.32847656 3.46523438 -8.52023437 3.29765625 -7.6875 3.125 C-6.88699219 2.96257812 -6.08648437 2.80015625 -5.26171875 2.6328125 C-2.74698882 2.05521001 -2.74698882 2.05521001 0 0 Z " fill="#121212" transform="translate(325,368)"/>
<path d="M0 0 C0.66 0.33 1.32 0.66 2 1 C2.625 4.0625 2.625 4.0625 3 7 C2.34 7 1.68 7 1 7 C1.66 9.31 2.32 11.62 3 14 C2.01 14 1.02 14 0 14 C-0.50559908 12.56445975 -1.0042749 11.1264798 -1.5 9.6875 C-1.7784375 8.88699219 -2.056875 8.08648437 -2.34375 7.26171875 C-3 5 -3 5 -3 2 C-2.01 1.34 -1.02 0.68 0 0 Z " fill="#070707" transform="translate(261,263)"/>
<path d="M0 0 C1.134375 0.020625 2.26875 0.04125 3.4375 0.0625 C1.05926166 4.90705959 1.05926166 4.90705959 -0.5625 7.0625 C-3.3125 8 -3.3125 8 -5.5625 8.0625 C-4.54651535 0.07976343 -4.54651535 0.07976343 0 0 Z " fill="#E7E7E7" transform="translate(322.5625,363.9375)"/>
<path d="M0 0 C1.5 1.16015625 1.5 1.16015625 3 3 C3.36836686 6.77000463 2.92758753 10.33355935 2 14 C-0.5625 16.6875 -0.5625 16.6875 -3 18 C-3.66 17.67 -4.32 17.34 -5 17 C-4.29423828 15.95779297 -4.29423828 15.95779297 -3.57421875 14.89453125 C-1.85690219 11.73688466 -1.31873535 9.23114745 -0.8125 5.6875 C-0.65394531 4.61886719 -0.49539062 3.55023438 -0.33203125 2.44921875 C-0.22246094 1.64097656 -0.11289063 0.83273437 0 0 Z " fill="#DADADA" transform="translate(189,298)"/>
<path d="M0 0 C1.98 0.495 1.98 0.495 4 1 C4.66 3.31 5.32 5.62 6 8 C5.01 8.99 4.02 9.98 3 11 C2.67 9.68 2.34 8.36 2 7 C1.34 7.66 0.68 8.32 0 9 C-1.125 2.25 -1.125 2.25 0 0 Z " fill="#292929" transform="translate(269,292)"/>
<path d="M0 0 C0.33 0 0.66 0 1 0 C1.25 2.75 1.25 2.75 1 6 C-1 8.375 -1 8.375 -3 10 C-5.475 9.01 -5.475 9.01 -8 8 C-7.67 6.68 -7.34 5.36 -7 4 C-5.35 4 -3.7 4 -2 4 C-1.34 2.68 -0.68 1.36 0 0 Z " fill="#0C0C0C" transform="translate(210,255)"/>
<path d="M0 0 C0.99 0.33 1.98 0.66 3 1 C2.01 4.96 1.02 8.92 0 13 C-0.99 12.34 -1.98 11.68 -3 11 C-2.88590407 9.54077307 -2.75834456 8.08259402 -2.625 6.625 C-2.55539063 5.81289063 -2.48578125 5.00078125 -2.4140625 4.1640625 C-2 2 -2 2 0 0 Z " fill="#151515" transform="translate(193,273)"/>
<path d="M0 0 C0 3.3 0 6.6 0 10 C-1.98 9.34 -3.96 8.68 -6 8 C-5.57004265 4.99029853 -3.66008917 0 0 0 Z " fill="#E6E6E6" transform="translate(304,162)"/>
<path d="M0 0 C0.33 0 0.66 0 1 0 C0.67 2.97 0.34 5.94 0 9 C-1.32 9 -2.64 9 -4 9 C-4.66 7.02 -5.32 5.04 -6 3 C-4.35 3 -2.7 3 -1 3 C-0.67 2.01 -0.34 1.02 0 0 Z " fill="#101010" transform="translate(170,201)"/>
<path d="M0 0 C2.25 0.125 2.25 0.125 5 1 C7.3125 4.0625 7.3125 4.0625 9 7 C8.67 7.66 8.34 8.32 8 9 C7.34 9 6.68 9 6 9 C6 8.34 6 7.68 6 7 C4.68 7.33 3.36 7.66 2 8 C2.04125 7.236875 2.0825 6.47375 2.125 5.6875 C2.22080824 2.77281584 2.22080824 2.77281584 0 0 Z " fill="#2C2C2C" transform="translate(110,213)"/>
<path d="M0 0 C2.27477677 3.53854164 1.99082706 5.70947373 1.125 9.75 C0.92132813 10.73484375 0.71765625 11.7196875 0.5078125 12.734375 C0.34023437 13.48203125 0.17265625 14.2296875 0 15 C-0.66 15 -1.32 15 -2 15 C-2.05406122 13.06280622 -2.09282025 11.12518079 -2.125 9.1875 C-2.14820313 8.10855469 -2.17140625 7.02960938 -2.1953125 5.91796875 C-2 3 -2 3 0 0 Z " fill="#0D0D0D" transform="translate(155,194)"/>
<path d="M0 0 C1.65 0 3.3 0 5 0 C6.0625 1.875 6.0625 1.875 7 4 C6.67 4.66 6.34 5.32 6 6 C3.625 5.6875 3.625 5.6875 1 5 C0.34 4.01 -0.32 3.02 -1 2 C-0.67 1.34 -0.34 0.68 0 0 Z " fill="#0B0B0B" transform="translate(241,311)"/>
<path d="M0 0 C0.66 0 1.32 0 2 0 C4.125 4.625 4.125 4.625 3 8 C3 7.34 3 6.68 3 6 C2.34 6 1.68 6 1 6 C0.67 6.99 0.34 7.98 0 9 C-1.4606285 6.35261084 -2 5.10551666 -2 2 C-1.34 2 -0.68 2 0 2 C0 1.34 0 0.68 0 0 Z " fill="#0B0B0B" transform="translate(255,248)"/>
<path d="M0 0 C0.99 0.33 1.98 0.66 3 1 C2.25 6.75 2.25 6.75 0 9 C-0.66 9 -1.32 9 -2 9 C-1.125 1.125 -1.125 1.125 0 0 Z " fill="#131313" transform="translate(319,347)"/>
<path d="M0 0 C0.66 1.32 1.32 2.64 2 4 C2.66 3.34 3.32 2.68 4 2 C4.99 3.485 4.99 3.485 6 5 C5.67 5.99 5.34 6.98 5 8 C2.9375 8.6875 2.9375 8.6875 1 9 C-1.09230769 4.56923077 -1.09230769 4.56923077 -0.625 1.6875 C-0.41875 1.130625 -0.2125 0.57375 0 0 Z " fill="#080808" transform="translate(271,298)"/>
<path d="M0 0 C1.9375 0.5 1.9375 0.5 4 2 C4.68790422 4.69658452 4.81946464 7.2017019 5 10 C4.01 10 3.02 10 2 10 C0.68373308 6.38026598 0 3.90432869 0 0 Z " fill="#070707" transform="translate(79,189)"/>
<path d="M0 0 C0 2.64 0 5.28 0 8 C-1.98 8.99 -1.98 8.99 -4 10 C-3.88637738 8.5199159 -3.75877092 7.04089926 -3.625 5.5625 C-3.55539062 4.73878906 -3.48578125 3.91507813 -3.4140625 3.06640625 C-3.27742188 2.38449219 -3.14078125 1.70257813 -3 1 C-1 0 -1 0 0 0 Z " fill="#141414" transform="translate(306,178)"/>
<path d="M0 0 C1.32 0.66 2.64 1.32 4 2 C3.67 3.32 3.34 4.64 3 6 C2.34 6 1.68 6 1 6 C0.67 6.66 0.34 7.32 0 8 C-0.66 7.67 -1.32 7.34 -2 7 C-1.125 1.125 -1.125 1.125 0 0 Z " fill="#252525" transform="translate(156,188)"/>
<path d="M0 0 C1.98 0.99 1.98 0.99 4 2 C4 4.97 4 7.94 4 11 C3.34 10.67 2.68 10.34 2 10 C1.3671875 7.71484375 1.3671875 7.71484375 0.875 4.9375 C0.70742187 4.01839844 0.53984375 3.09929687 0.3671875 2.15234375 C0.24601562 1.44207031 0.12484375 0.73179687 0 0 Z " fill="#0D0D0D" transform="translate(93,185)"/>
<path d="M0 0 C0.33 1.65 0.66 3.3 1 5 C0.34 5 -0.32 5 -1 5 C-1.33 5.66 -1.66 6.32 -2 7 C-2.66 7 -3.32 7 -4 7 C-4 5.02 -4 3.04 -4 1 C-2 0 -2 0 0 0 Z " fill="#1C1C1C" transform="translate(280,315)"/>
<path d="M0 0 C2 3 2 3 2 5 C2.66 5.33 3.32 5.66 4 6 C0.98968256 6.93423645 0.13349732 7.04449911 -3 6 C-2 4 -1 2 0 0 Z " fill="#C7C7C7" transform="translate(144,380)"/>
<path d="M0 0 C0.99 0.33 1.98 0.66 3 1 C2.67 2.32 2.34 3.64 2 5 C-1.63 4.67 -5.26 4.34 -9 4 C-9 3.67 -9 3.34 -9 3 C-7.02 3 -5.04 3 -3 3 C-2.67 2.34 -2.34 1.68 -2 1 C-1.67 1.33 -1.34 1.66 -1 2 C-0.67 1.34 -0.34 0.68 0 0 Z " fill="#2F2F2F" transform="translate(114,201)"/>
<path d="M0 0 C0.66 0 1.32 0 2 0 C1.67 2.64 1.34 5.28 1 8 C0.01 8.33 -0.98 8.66 -2 9 C-1.51421457 5.87709365 -1.0013988 3.00419641 0 0 Z " fill="#1A1A1A" transform="translate(106,183)"/>
<path d="M0 0 C0 1.65 0 3.3 0 5 C-1.65 5.33 -3.3 5.66 -5 6 C-5.33 4.35 -5.66 2.7 -6 1 C-1.125 0 -1.125 0 0 0 Z " fill="#9B9B9B" transform="translate(313,275)"/>
<path d="M0 0 C2 3 2 3 3 5 C3.99 5.33 4.98 5.66 6 6 C6 6.99 6 7.98 6 9 C4.68 9 3.36 9 2 9 C0.93347808 6.69631264 -0.06421005 4.35981813 -1 2 C-0.67 1.34 -0.34 0.68 0 0 Z " fill="#CDCDCD" transform="translate(281,199)"/>
<path d="M0 0 C0.66 0 1.32 0 2 0 C2.33 2.97 2.66 5.94 3 9 C2.34 9 1.68 9 1 9 C-0.4783226 6.04335481 -0.06032783 3.25770263 0 0 Z " fill="#050505" transform="translate(85,209)"/>
<path d="M0 0 C0.1875 2.375 0.1875 2.375 0 5 C-0.99 5.66 -1.98 6.32 -3 7 C-3.33 5.02 -3.66 3.04 -4 1 C-2 0 -2 0 0 0 Z " fill="#0A0A0A" transform="translate(281,320)"/>
<path d="M0 0 C0 1.65 0 3.3 0 5 C-4.75 4.25 -4.75 4.25 -7 2 C-2.25 0 -2.25 0 0 0 Z " fill="#2B2B2B" transform="translate(166,225)"/>
<path d="M0 0 C0.99 0.99 1.98 1.98 3 3 C2.34 4.32 1.68 5.64 1 7 C0.01 5.68 -0.98 4.36 -2 3 C-1.34 2.01 -0.68 1.02 0 0 Z " fill="#1D1D1D" transform="translate(191,242)"/>
<path d="M0 0 C1.65 0.33 3.3 0.66 5 1 C2.23776722 3.76223278 -0.20706617 3.57856291 -4 4 C-3.67 3.34 -3.34 2.68 -3 2 C-2.34 2.33 -1.68 2.66 -1 3 C-0.67 2.01 -0.34 1.02 0 0 Z " fill="#060606" transform="translate(158,228)"/>
</svg>
